<svg width="110" height="114" viewBox="0 0 110 114" fill="none" xmlns="http://www.w3.org/2000/svg">
<path d="M108.234 97.7106C101.161 105.423 93.6271 116.233 82.2323 110.034C76.8177 107.089 74.3987 97.3768 76.0742 91.976C77.464 87.4961 77.5846 81.4441 82.9636 79.7423C87.1886 78.4056 91.7741 79.8448 93.853 83.9908C99.7567 95.7647 82.8406 98.9423 75.632 95.6219C65.7927 91.0899 60.0219 62.4661 70.9791 56.5046C80.3738 51.3932 82.8733 63.3123 75.9557 68.3583C66.2246 75.4566 59.183 74.0596 52.667 62.3905C47.5792 53.2792 52.8185 40.6234 60.0395 35.0413C61.5392 33.882 68.2801 24.862 69.0796 26.1218C76.9681 38.5522 55.2122 48.8249 45.5881 44.3005C34.5302 39.1021 23.401 33.716 17.9291 22.6543C14.9865 16.7058 11.6219 -2.85026 11.5751 3.78604C11.5166 12.091 10.6792 23.3054 5.5335 30.3515C4.00234 32.4482 -0.725343 39.2616 3.49484 32.5594C7.84113 25.657 11.8303 19.6784 14.6596 12.4663C15.2893 10.8613 13.6995 7.98621 13.3022 6.40071C12.9656 5.0578 17.4503 7.75975 18.0157 7.9597C22.8982 9.68618 27.94 8.86025 32.8084 7.49661C37.1536 6.27949 42.5045 3.32025 45.0483 5.44388" stroke="#00ADB5" stroke-opacity="0.2" stroke-width="2.99678" stroke-linecap="round" stroke-linejoin="round"/>
</svg>
