<svg width="246" height="189" viewBox="0 0 246 189" fill="none" xmlns="http://www.w3.org/2000/svg">
<rect x="172.139" y="138.055" width="24.2416" height="50.0347" rx="1.89243" fill="#00ADB5" stroke="black" stroke-width="0.885484" stroke-linejoin="round"/>
<rect x="108.722" y="152.503" width="24.2416" height="35.5867" rx="1.89243" fill="#EEEEEE" stroke="black" stroke-width="0.885484" stroke-linejoin="round"/>
<rect x="221.204" y="82.5906" width="24.2416" height="105.5" rx="1.89243" fill="#00ADB5" stroke="black" stroke-width="0.885484" stroke-linejoin="round"/>
<path d="M140.901 69.7476L165.825 69.7476C165.825 69.7476 161.853 106.049 156.447 112.001C151.04 117.953 122.746 134.275 122.746 134.275L113.217 128.427L130.981 100.451C130.981 100.451 129.027 89.5419 140.901 69.7476Z" fill="#00ADB5" stroke="black" stroke-width="0.753058"/>
<path d="M123.149 133.947L113.217 128.428L108.191 133.84C108.191 133.84 116.664 138.751 122.576 140.676L120.072 137.374L123.149 133.947Z" fill="#EEEEEE" stroke="black" stroke-width="0.753058" stroke-linejoin="round"/>
<path d="M141.007 69.2186L168.24 69.1827C168.24 69.1827 183.379 82.4955 185.286 90.3064C187.193 98.1174 185.018 126.464 185.018 126.464L174.012 131.331L162.649 101.39C162.649 101.39 150.768 90.1355 141.007 69.2186Z" fill="#00ADB5"/>
<path d="M141.007 69.2186L141.007 68.8421C140.878 68.8422 140.758 68.908 140.689 69.0166C140.62 69.1251 140.612 69.2613 140.666 69.3778L141.007 69.2186ZM168.24 69.1827L168.489 68.9L168.382 68.806L168.24 68.8062L168.24 69.1827ZM185.018 126.464L185.171 126.808L185.377 126.717L185.394 126.493L185.018 126.464ZM174.012 131.331L173.66 131.464L173.801 131.836L174.164 131.675L174.012 131.331ZM162.649 101.39L163.001 101.256L162.97 101.176L162.907 101.116L162.649 101.39ZM141.008 69.5951L168.241 69.5593L168.24 68.8062L141.007 68.8421L141.008 69.5951ZM184.866 126.12L173.859 130.986L174.164 131.675L185.171 126.808L184.866 126.12ZM174.364 131.197L163.001 101.256L162.296 101.523L173.66 131.464L174.364 131.197ZM162.649 101.39C162.907 101.116 162.907 101.116 162.907 101.116C162.907 101.116 162.907 101.116 162.907 101.116C162.907 101.116 162.906 101.115 162.906 101.115C162.905 101.114 162.903 101.112 162.9 101.109C162.895 101.104 162.886 101.096 162.875 101.086C162.853 101.064 162.82 101.032 162.776 100.989C162.688 100.903 162.557 100.774 162.387 100.601C162.046 100.255 161.547 99.7375 160.917 99.0501C159.657 97.6752 157.874 95.6229 155.786 92.9179C151.61 87.5077 146.215 79.4885 141.348 69.0594L140.666 69.3778C145.56 79.8656 150.986 87.9319 155.19 93.3781C157.292 96.1013 159.089 98.1698 160.362 99.5588C160.999 100.253 161.504 100.778 161.851 101.13C162.024 101.306 162.158 101.438 162.249 101.527C162.295 101.572 162.329 101.605 162.353 101.628C162.365 101.639 162.374 101.648 162.38 101.654C162.383 101.657 162.385 101.659 162.387 101.661C162.388 101.661 162.388 101.662 162.389 101.662C162.389 101.663 162.389 101.663 162.389 101.663C162.389 101.663 162.39 101.663 162.649 101.39ZM168.24 69.1827C167.991 69.4655 167.991 69.4655 167.992 69.4656C167.992 69.4657 167.992 69.4658 167.992 69.466C167.992 69.4664 167.993 69.4669 167.994 69.4677C167.996 69.4692 167.998 69.4716 168.002 69.4747C168.009 69.481 168.02 69.4904 168.034 69.503C168.062 69.5281 168.104 69.5656 168.16 69.615C168.27 69.7138 168.433 69.8599 168.641 70.0488C169.057 70.4266 169.654 70.9754 170.377 71.6585C171.822 73.025 173.768 74.9275 175.773 77.0726C177.778 79.2185 179.838 81.6019 181.512 83.9304C183.193 86.267 184.461 88.5155 184.92 90.3957L185.652 90.2171C185.157 88.1919 183.818 85.8472 182.124 83.4908C180.423 81.1263 178.34 78.717 176.323 76.5584C174.305 74.3988 172.347 72.485 170.894 71.1113C170.167 70.4243 169.567 69.872 169.147 69.4913C168.938 69.3009 168.773 69.1534 168.661 69.0533C168.605 69.0032 168.562 68.9651 168.533 68.9393C168.519 68.9265 168.508 68.9167 168.5 68.9101C168.496 68.9068 168.494 68.9043 168.492 68.9026C168.491 68.9018 168.49 68.9011 168.49 68.9007C168.489 68.9005 168.489 68.9003 168.489 68.9002C168.489 68.9001 168.489 68.9 168.24 69.1827ZM184.92 90.3957C185.386 92.303 185.608 95.5006 185.672 99.2578C185.737 103.004 185.644 107.272 185.491 111.3C185.339 115.328 185.127 119.112 184.953 121.889C184.866 123.278 184.788 124.415 184.732 125.204C184.705 125.599 184.682 125.907 184.667 126.116C184.659 126.221 184.653 126.301 184.649 126.354C184.647 126.381 184.645 126.401 184.644 126.415C184.644 126.422 184.644 126.427 184.643 126.43C184.643 126.432 184.643 126.433 184.643 126.434C184.643 126.435 184.643 126.435 184.643 126.435C184.643 126.435 184.643 126.435 185.018 126.464C185.394 126.493 185.394 126.493 185.394 126.493C185.394 126.492 185.394 126.492 185.394 126.492C185.394 126.491 185.394 126.489 185.394 126.488C185.394 126.484 185.395 126.479 185.395 126.472C185.396 126.458 185.398 126.438 185.4 126.411C185.404 126.357 185.41 126.277 185.418 126.172C185.433 125.962 185.456 125.653 185.484 125.257C185.539 124.466 185.617 123.327 185.704 121.936C185.878 119.155 186.091 115.364 186.244 111.329C186.397 107.294 186.49 103.011 186.425 99.2449C186.361 95.4902 186.14 92.2154 185.652 90.2171L184.92 90.3957Z" fill="black"/>
<path fill-rule="evenodd" clip-rule="evenodd" d="M164.893 24.8053C165.512 24.5793 166.102 24.249 166.64 23.7904C170.704 20.3287 168.961 15.1059 166.502 12.3868C164.043 9.66772 149 10.7523 156.097 23.3488C156.126 23.3668 156.157 23.3849 156.188 23.4031C156.981 25.9277 156.312 28.0931 155.509 30.6912C155.182 31.7509 154.832 32.8825 154.55 34.1399L162.077 33.6007C164.145 30.7916 164.93 27.9601 164.893 24.8053Z" fill="#F5B9AB"/>
<path d="M166.64 23.7904L166.928 24.1274L166.928 24.1274L166.64 23.7904ZM164.893 24.8053L164.741 24.3893C164.564 24.4537 164.448 24.6226 164.45 24.8105L164.893 24.8053ZM166.502 12.3868L166.174 12.6838L166.174 12.6838L166.502 12.3868ZM156.097 23.3488L155.711 23.5661C155.748 23.6327 155.803 23.6885 155.868 23.728L156.097 23.3488ZM156.188 23.4031L156.61 23.2703C156.577 23.1657 156.507 23.0769 156.412 23.0214L156.188 23.4031ZM155.509 30.6912L155.932 30.8219L155.932 30.8219L155.509 30.6912ZM154.55 34.1399L154.118 34.0431C154.088 34.1797 154.124 34.3228 154.215 34.4288C154.306 34.5349 154.442 34.5915 154.582 34.5815L154.55 34.1399ZM162.077 33.6007L162.108 34.0423C162.238 34.033 162.356 33.9676 162.433 33.8632L162.077 33.6007ZM166.353 23.4534C165.858 23.8757 165.314 24.1803 164.741 24.3893L165.044 25.2212C165.71 24.9783 166.347 24.6223 166.928 24.1274L166.353 23.4534ZM166.174 12.6838C167.352 13.9864 168.354 15.8882 168.577 17.8599C168.798 19.8112 168.259 21.83 166.353 23.4534L166.928 24.1274C169.085 22.2892 169.707 19.9657 169.457 17.7604C169.21 15.5755 168.112 13.5064 166.831 12.0898L166.174 12.6838ZM156.482 23.1314C154.738 20.0352 154.399 17.7247 154.813 16.0453C155.223 14.3779 156.4 13.2374 157.906 12.5246C159.418 11.8089 161.231 11.5424 162.819 11.6233C163.61 11.6637 164.332 11.7899 164.921 11.9815C165.518 12.1758 165.94 12.4248 166.174 12.6838L166.831 12.0898C166.45 11.669 165.864 11.3571 165.195 11.1395C164.518 10.9192 163.717 10.7825 162.864 10.739C161.16 10.6521 159.196 10.9342 157.527 11.7243C155.851 12.5173 154.444 13.8399 153.953 15.8336C153.465 17.8153 153.907 20.3641 155.711 23.5661L156.482 23.1314ZM156.412 23.0214C156.382 23.0039 156.353 22.9867 156.325 22.9695L155.868 23.728C155.899 23.7469 155.931 23.7658 155.964 23.7848L156.412 23.0214ZM155.932 30.8219C156.729 28.2423 157.451 25.9457 156.61 23.2703L155.765 23.5358C156.511 25.9096 155.895 27.9438 155.086 30.5605L155.932 30.8219ZM154.982 34.2367C155.26 32.9989 155.604 31.8831 155.932 30.8219L155.086 30.5605C154.759 31.6187 154.405 32.7662 154.118 34.0431L154.982 34.2367ZM162.045 33.159L154.519 33.6983L154.582 34.5815L162.108 34.0423L162.045 33.159ZM164.45 24.8105C164.486 27.8761 163.728 30.6121 161.72 33.3381L162.433 33.8632C164.563 30.9711 165.373 28.044 165.335 24.8001L164.45 24.8105Z" fill="black"/>
<path d="M154.746 15.7421C153.569 17.3807 154.837 21.4275 155.773 22.4398C148.018 18.1366 152.927 8.42766 155.32 10.1981C155.71 6.60862 159.829 5.34215 162.637 8.37794C169.676 2.69304 170.047 12.3799 167.562 13.8531C165.077 15.3262 162.063 13.9233 160.498 14.683C158.934 15.4427 157.969 20.0442 157.462 17.4903C156.955 14.9363 156.218 13.694 154.746 15.7421Z" fill="#00ADB5" stroke="black" stroke-width="0.885484"/>
<path d="M169.149 69.7992C177.266 64.4005 173.879 45.7446 172.724 40.4404C172.516 39.4861 172.209 38.5707 171.835 37.6682C168.767 30.2508 161.197 24.2765 153.947 27.722C138.505 35.0611 140.801 58.4716 140.946 69.9747L169.149 69.7992Z" fill="#EEEEEE" stroke="black" stroke-width="0.885484" stroke-linejoin="round"/>
<path d="M193.565 44.5554L187.05 36.6046L165.098 51.9635L158.002 37.6818L148.815 51.9633C148.815 51.9633 158.768 67.4214 163.824 66.9723C173.038 66.1539 193.565 44.5554 193.565 44.5554Z" fill="#EEEEEE"/>
<path d="M158.488 38.7241L165.036 51.5252L187.05 36.6051L193.565 44.5558C193.565 44.5558 174.214 66.0206 162.906 67.0251C159.347 67.3413 148.978 51.8089 148.978 51.8089" stroke="black" stroke-width="0.885484"/>
<path d="M189.216 35.17L186.636 36.8262L193.113 45.0332L195.151 43.3827C197.318 41.6266 197.662 38.45 195.92 36.2712C194.297 34.2419 191.403 33.7664 189.216 35.17Z" fill="#F5B9AB" stroke="black" stroke-width="0.885484" stroke-linejoin="round"/>
<path d="M185.152 125.431L174.012 131.239L175.928 138.497L190.803 129.337L186.426 129.931L185.152 125.431Z" fill="#EEEEEE" stroke="black" stroke-width="0.753058" stroke-linejoin="round"/>
<path d="M3.92451 59.0376C7.56766 52.4595 11.0113 43.6404 20.0146 46.0528C24.2927 47.1991 27.617 53.5764 27.3555 57.6312C27.1385 60.9945 28.0728 65.2425 24.6016 67.3366C21.8752 68.9814 18.4297 68.7478 16.2797 66.2014C10.1741 58.9702 21.4563 53.9035 27.0507 55.0098C34.6868 56.5199 43.5353 75.5442 36.8843 81.5527C31.1818 86.7044 27.4298 78.7988 31.4129 74.1097C37.0161 67.5134 42.1702 67.3042 48.6859 74.3592C53.7734 79.8678 52.2434 89.5903 48.1385 94.705C47.2859 95.7673 44.095 103.203 43.3245 102.457C35.7219 95.1015 49.191 84.2639 56.6754 85.8048C65.2749 87.5753 73.9558 89.4648 79.6399 96.2712C82.6965 99.9313 88.3382 113.026 87.254 108.382C85.8972 102.571 84.5949 94.5962 87.0036 88.8081C87.7203 87.0857 89.8763 81.5305 88.0561 86.9226C86.1816 92.4759 84.4011 97.3237 83.6384 102.838C83.4687 104.065 85.0631 105.806 85.6075 106.847C86.0686 107.728 82.4811 106.595 82.0524 106.551C78.3511 106.167 74.9681 107.592 71.7968 109.364C68.9662 110.945 65.7263 113.913 63.5918 112.858" stroke="#00ADB5" stroke-opacity="0.2" stroke-width="2.15333" stroke-linecap="round" stroke-linejoin="round"/>
</svg>
