<svg width="300" height="359" viewBox="0 0 300 359" fill="none" xmlns="http://www.w3.org/2000/svg">
<path d="M100.859 226.349C100.144 226.455 99.3023 226.511 99.1319 227.363C98.9998 228.023 99.0498 228.703 99.4456 229.275C100.122 230.254 101.127 230.825 102.337 230.624C103.419 230.443 104.905 229.463 104.905 228.245C104.905 227.559 104.41 226.868 104.001 226.354C103.562 225.803 103.184 225.224 102.632 224.774C101.887 224.166 101.286 224.107 100.616 224.823C100.25 225.215 99.9032 225.75 99.7429 226.263C99.6638 226.516 99.7218 226.718 99.7218 226.972C99.7218 227.31 99.6591 226.811 99.7218 226.644" stroke="#00ADB5" stroke-opacity="0.5" stroke-width="0.546618" stroke-linecap="round" stroke-linejoin="round"/>
<path d="M104.567 228.284C105.176 228.824 105.692 229.313 106.769 229.34C107.523 229.358 108.276 229.17 108.982 228.968C109.488 228.823 111.109 228.055 109.796 227.993" stroke="#00ADB5" stroke-opacity="0.5" stroke-width="0.546618" stroke-linecap="round" stroke-linejoin="round"/>
<path d="M110.846 223.568C110.042 224.456 108.933 226.194 109.35 227.527C109.496 227.995 109.709 228.311 109.984 228.711C110.538 229.517 111.397 229.266 112.175 229.055C112.74 228.903 113.411 228.422 113.627 227.876C113.925 227.121 113.303 225.942 112.784 225.422C112.204 224.842 111.745 224.137 111.099 223.629C110.927 223.494 110.796 223.348 110.572 223.397C110.32 223.453 110.216 223.695 110.551 223.695" stroke="#00ADB5" stroke-opacity="0.5" stroke-width="0.546618" stroke-linecap="round" stroke-linejoin="round"/>
<path d="M167.645 101.989C166.93 102.095 166.088 102.151 165.918 103.003C165.786 103.663 165.836 104.343 166.231 104.915C166.908 105.894 167.912 106.465 169.122 106.264C170.204 106.083 171.69 105.103 171.69 103.885C171.69 103.199 171.196 102.508 170.787 101.994C170.348 101.443 169.969 100.864 169.417 100.414C168.673 99.8064 168.071 99.7468 167.402 100.463C167.036 100.855 166.689 101.39 166.529 101.903C166.45 102.156 166.508 102.358 166.508 102.612C166.508 102.95 166.445 102.451 166.508 102.284" stroke="#00ADB5" stroke-opacity="0.5" stroke-width="0.546618" stroke-linecap="round" stroke-linejoin="round"/>
<path d="M171.353 103.924C171.962 104.464 172.478 104.953 173.555 104.98C174.308 104.998 175.062 104.81 175.768 104.608C176.274 104.463 177.895 103.695 176.582 103.633" stroke="#00ADB5" stroke-opacity="0.5" stroke-width="0.546618" stroke-linecap="round" stroke-linejoin="round"/>
<path d="M177.632 99.2083C176.828 100.095 175.719 101.834 176.136 103.167C176.282 103.635 176.495 103.951 176.77 104.351C177.324 105.157 178.183 104.906 178.961 104.695C179.526 104.543 180.197 104.062 180.413 103.516C180.711 102.761 180.089 101.582 179.57 101.062C178.99 100.482 178.531 99.7768 177.884 99.2691C177.713 99.1341 177.582 98.9876 177.358 99.0374C177.106 99.0934 177.002 99.3347 177.337 99.3347" stroke="#00ADB5" stroke-opacity="0.5" stroke-width="0.546618" stroke-linecap="round" stroke-linejoin="round"/>
<path d="M106.019 76.196C110.144 74.2307 113.479 70.9812 116.832 67.9169C119.467 65.5085 122.231 63.1287 125.14 61.0504C125.713 60.6403 126.524 59.815 127.3 60.1667C128.069 60.5153 128.512 61.4643 129.12 62.0263C130.616 63.4102 131.961 65.1014 133.192 66.7277C134.546 68.518 132.515 69.5089 131.26 70.681C129.833 72.0125 128.472 73.3855 126.914 74.5604C125.433 75.6772 124.244 77.2164 122.888 78.4807C120.822 80.4074 118.89 82.4587 116.83 84.3874C115.604 85.5355 114.197 86.4728 113.017 87.6618C112.603 88.0784 112.22 88.629 111.743 88.9759C111.36 89.2545 110.83 88.1831 110.693 87.9813C109.61 86.3797 107.933 85.2841 106.872 83.6089C106.206 82.5557 105.757 81.2558 104.959 80.2939C104.578 79.8347 103.626 78.8012 104.043 78.1304C104.469 77.4456 105.679 77.1174 106.339 76.6269C106.853 76.2446 107.478 75.7725 108.064 75.5067C108.489 75.3135 108.907 74.971 109.287 74.7072C110.289 74.0131 109.228 74.3098 108.55 74.5677" stroke="#00ADB5" stroke-opacity="0.5" stroke-width="0.546618" stroke-linecap="round" stroke-linejoin="round"/>
<path d="M106.649 79.3403C109.16 80.8949 111.413 83.1447 113.373 85.3635C113.423 85.4197 113.9 85.7522 113.828 85.8753C113.687 86.1129 112.057 85.0403 111.901 84.9328" stroke="#00ADB5" stroke-opacity="0.5" stroke-width="0.546618" stroke-linecap="round" stroke-linejoin="round"/>
<path d="M109.139 77.0927C111.175 77.6758 112.388 78.785 114.032 79.9719C114.764 80.5006 115.51 80.9777 116.167 81.5994C116.476 81.8914 116.696 82.2758 116.981 82.5906C117.371 83.0221 115.776 82.0897 115.588 81.9823" stroke="#00ADB5" stroke-opacity="0.5" stroke-width="0.546618" stroke-linecap="round" stroke-linejoin="round"/>
<path d="M112.097 75.3504C113.522 76.6362 114.954 77.9043 116.423 79.1385C116.982 79.6073 117.615 80.0376 118.097 80.5898C118.953 81.5701 117.832 80.2981 117.452 79.939" stroke="#00ADB5" stroke-opacity="0.5" stroke-width="0.546618" stroke-linecap="round" stroke-linejoin="round"/>
<path d="M114.093 74.1247C115.15 74.7671 116.254 75.3898 117.149 76.2561C117.516 76.6115 117.82 77.0304 118.213 77.3596C118.696 77.7652 119.12 78.2383 119.606 78.6325C120.299 79.1939 120.404 79.3578 119.58 78.6532" stroke="#00ADB5" stroke-opacity="0.5" stroke-width="0.546618" stroke-linecap="round" stroke-linejoin="round"/>
<path d="M116.667 72.2379C117.833 73.1503 118.912 74.0769 119.887 75.19C120.318 75.683 120.666 76.252 121.214 76.6302C121.716 76.9767 122.068 77.0768 121.481 76.5137" stroke="#00ADB5" stroke-opacity="0.5" stroke-width="0.546618" stroke-linecap="round" stroke-linejoin="round"/>
<path d="M119.144 70.315C120.171 71.0864 121.183 71.7906 122.003 72.7841C122.378 73.2389 122.675 73.7616 123.094 74.1811C123.945 75.033 123.36 74.6036 122.744 74.0254" stroke="#00ADB5" stroke-opacity="0.5" stroke-width="0.546618" stroke-linecap="round" stroke-linejoin="round"/>
<path d="M121.429 68.3198C122.871 69.6986 124.078 71.3134 125.522 72.6753C126.494 73.5922 125.101 72.1228 124.873 71.8618" stroke="#00ADB5" stroke-opacity="0.5" stroke-width="0.546618" stroke-linecap="round" stroke-linejoin="round"/>
<path d="M124.219 66.7338C125.432 66.2385 126.691 65.6481 127.343 64.4377C127.522 64.1039 127.754 63.8134 127.828 63.4373C127.929 62.9207 127.909 63.1423 127.527 63.4766" stroke="#00ADB5" stroke-opacity="0.5" stroke-width="0.546618" stroke-linecap="round" stroke-linejoin="round"/>
<path d="M126.172 68.3996C127.134 67.5072 128.209 66.5323 128.914 65.3994C129.265 64.8343 129.935 64.1446 128.999 64.9619" stroke="#00ADB5" stroke-opacity="0.5" stroke-width="0.546618" stroke-linecap="round" stroke-linejoin="round"/>
<path d="M129.256 70.2702C130.132 69.318 130.912 68.4323 131.718 67.4366C131.979 67.1149 132.773 66.6974 131.818 66.9527" stroke="#00ADB5" stroke-opacity="0.5" stroke-width="0.546618" stroke-linecap="round" stroke-linejoin="round"/>
<path d="M128.559 69.7891C129.476 69.0031 130.513 68.088 131.24 67.0955C131.434 66.8307 131.583 66.5358 131.761 66.2607C132.058 65.7999 132.077 65.9555 131.626 66.0028" stroke="#00ADB5" stroke-opacity="0.5" stroke-width="0.546618" stroke-linecap="round" stroke-linejoin="round"/>
<path d="M109.125 80.9282C113.695 79.0719 114.822 74.034 118.546 71.1848C118.999 70.8382 119.367 70.453 119.896 70.2131C120.249 70.0526 120.685 69.9758 121.007 69.7706C121.203 69.6453 122.831 68.4011 121.7 68.9151" stroke="#00ADB5" stroke-opacity="0.5" stroke-width="0.546618" stroke-linecap="round" stroke-linejoin="round"/>
<path d="M106.998 79.5809C107.51 78.9573 107.966 78.4236 108.616 77.9726C108.723 77.8987 108.888 77.8862 108.975 77.7874C109.149 77.5917 109.413 77.3056 109.48 77.0532C109.744 76.059 111.033 76.2428 111.717 75.7444C112.369 75.2702 112.996 74.7901 113.66 74.3216C114.391 73.8054 114.73 73.3527 115.317 72.6913C115.857 72.0838 116.381 71.4692 116.952 70.8941C117.419 70.4235 118.153 69.9956 118.451 69.3933C118.787 68.7137 119.645 67.9358 120.417 68.0617C120.682 68.105 122.631 69.2344 121.357 68.5123" stroke="#00ADB5" stroke-opacity="0.5" stroke-width="0.546618" stroke-linecap="round" stroke-linejoin="round"/>
<path d="M111.133 82.0109C114.567 80.1995 116.472 76.2504 118.792 73.2672C119.646 72.1684 120.867 71.4383 121.761 70.3586C122.144 69.8968 122.988 69.4062 122.006 69.4142" stroke="#00ADB5" stroke-opacity="0.5" stroke-width="0.546618" stroke-linecap="round" stroke-linejoin="round"/>
<path d="M112.359 83.1295C115.47 81.2166 117.463 77.6576 119.727 74.8373C120.757 73.5541 121.751 72.2441 122.793 70.9715C123.268 70.3912 124.097 70.0288 123.034 70.6229" stroke="#00ADB5" stroke-opacity="0.5" stroke-width="0.546618" stroke-linecap="round" stroke-linejoin="round"/>
<path d="M113.584 85.1257C115.526 83.2323 117.094 81.1891 118.682 78.9989C119.648 77.6672 120.483 76.1702 121.618 74.9711C122.268 74.2831 122.77 73.4775 123.36 72.7481C123.598 72.4542 123.763 72.1119 124.007 71.8205C124.558 71.1642 124.174 71.7579 123.79 72.114" stroke="#00ADB5" stroke-opacity="0.5" stroke-width="0.546618" stroke-linecap="round" stroke-linejoin="round"/>
<path d="M114.041 85.9555C115.007 85.009 116.423 84.098 117.068 82.8702C117.302 82.4244 117.881 81.3482 118.287 81.0755C118.824 80.7149 119.08 79.9478 119.471 79.4654C119.877 78.963 120.276 78.4728 120.717 77.995C121.131 77.5469 121.264 76.7605 121.777 76.3749C122.348 75.9453 122.626 75.2804 123.081 74.7675C123.475 74.3237 124.226 73.8637 124.715 73.5247C124.986 73.3368 125.175 73.0807 125.483 72.9411C126.106 72.6582 125.701 72.803 125.131 72.7817" stroke="#00ADB5" stroke-opacity="0.5" stroke-width="0.546618" stroke-linecap="round" stroke-linejoin="round"/>
<path d="M124.141 67.0883C124.94 67.2991 125.926 67.4438 126.654 67.8794C127.124 68.1605 127.534 68.4427 126.678 67.9308" stroke="#00ADB5" stroke-opacity="0.5" stroke-width="0.546618" stroke-linecap="round" stroke-linejoin="round"/>
<path d="M124.971 65.7541C126.111 66.052 126.917 66.3859 127.847 66.9921C128.455 67.3885 128.357 67.2787 127.724 66.8972" stroke="#00ADB5" stroke-opacity="0.5" stroke-width="0.546618" stroke-linecap="round" stroke-linejoin="round"/>
<path d="M126.354 64.408C127.333 64.9586 128.283 65.5844 129.296 66.0638C129.891 66.3458 129.579 66.3261 129.119 66.1042" stroke="#00ADB5" stroke-opacity="0.5" stroke-width="0.546618" stroke-linecap="round" stroke-linejoin="round"/>
<path d="M127.142 63.3321C128.171 63.8009 129.12 64.2677 130.068 64.8574C130.501 65.1263 130.108 65.1437 129.78 64.9261" stroke="#00ADB5" stroke-opacity="0.5" stroke-width="0.546618" stroke-linecap="round" stroke-linejoin="round"/>
<path d="M124.646 66.6197C125.424 65.6949 126.204 64.8187 126.912 63.8708C127.114 63.6015 128.339 62.1021 127.81 62.8695" stroke="#00ADB5" stroke-opacity="0.5" stroke-width="0.546618" stroke-linecap="round" stroke-linejoin="round"/>
<path d="M125.463 68.2431C126.475 67.3484 127.934 66.1554 128.26 64.8187C128.356 64.4253 128.565 64.0322 128.871 63.7616C129.18 63.4871 129.504 63.3632 129.041 63.8257" stroke="#00ADB5" stroke-opacity="0.5" stroke-width="0.546618" stroke-linecap="round" stroke-linejoin="round"/>
<path d="M124.651 68.2128C125.731 67.0504 126.653 66.2692 127.263 64.8374C127.421 64.4656 127.603 64.1574 127.862 63.8647C128.138 63.5547 128.533 63.2643 128.001 63.8194" stroke="#00ADB5" stroke-opacity="0.5" stroke-width="0.546618" stroke-linecap="round" stroke-linejoin="round"/>
<path d="M128.661 68.7852C129.158 69.1003 129.656 69.3922 130.173 69.6544C130.386 69.7627 130.122 69.5531 130.032 69.5191" stroke="#00ADB5" stroke-opacity="0.5" stroke-width="0.546618" stroke-linecap="round" stroke-linejoin="round"/>
<path d="M129.629 67.2285C129.663 67.2571 131.617 68.931 131.27 68.5577" stroke="#00ADB5" stroke-opacity="0.5" stroke-width="0.546618" stroke-linecap="round" stroke-linejoin="round"/>
<path d="M130.79 66.6217C131.221 67.0363 132.541 68.249 132.076 67.8725" stroke="#00ADB5" stroke-opacity="0.5" stroke-width="0.546618" stroke-linecap="round" stroke-linejoin="round"/>
<path d="M128.084 69.4463C128.798 68.7813 130.364 67.4637 130.748 66.4414C130.899 66.0386 131.592 65.5209 130.941 66.0748" stroke="#00ADB5" stroke-opacity="0.5" stroke-width="0.546618" stroke-linecap="round" stroke-linejoin="round"/>
<path d="M128.174 69.6447C128.242 69.699 129.608 71.1702 129.899 70.4568C130.048 70.0927 130.241 69.6184 130.606 69.4177C131.246 69.0656 131.364 67.9566 132.019 67.6591C132.762 67.3216 132.693 66.7557 132.001 66.555C131.729 66.4761 131.943 65.9403 131.661 65.9824C131.402 66.0209 131.265 65.9255 130.976 65.9785" stroke="#00ADB5" stroke-opacity="0.5" stroke-width="0.546618" stroke-linecap="round" stroke-linejoin="round"/>
<path d="M124.051 66.89C124.519 67.7852 124.608 68.1098 125.364 68.4832C125.568 68.584 125.834 68.4442 125.989 68.5228C126.295 68.6783 126.901 68.6816 127.13 68.3993C127.589 67.8316 127.759 67.4652 128.463 67.1199C128.908 66.9021 129.265 66.3881 129.471 65.962C129.697 65.4937 130.104 65.1409 130.343 64.6708C130.444 64.4706 129.624 63.9551 129.617 63.6088C129.614 63.5107 128.64 63.5077 128.478 63.4254C128.282 63.3258 128.192 63.1853 128.098 62.9778C127.96 62.6748 127.716 63.051 127.346 63.0797" stroke="#00ADB5" stroke-opacity="0.5" stroke-width="0.546618" stroke-linecap="round" stroke-linejoin="round"/>
<path d="M107.828 78.2466C108.934 78.6672 109.899 79.2095 110.896 79.8096C111.761 80.3307 112.738 80.6083 113.597 81.1134C114.209 81.4729 114.844 82.2938 115.296 82.8329C115.446 83.0126 115.559 83.1807 115.665 83.3831C115.91 83.8476 115.655 82.7247 115.63 82.6016" stroke="#00ADB5" stroke-opacity="0.5" stroke-width="0.546618" stroke-linecap="round" stroke-linejoin="round"/>
<path d="M118.513 69.8038C118.82 70.126 120.062 71.9046 119.817 70.5677" stroke="#00ADB5" stroke-opacity="0.5" stroke-width="0.546618" stroke-linecap="round" stroke-linejoin="round"/>
<path d="M121.071 193.269C121.202 193.946 121.537 194.386 121.796 195.002C121.973 195.422 122.303 195.747 122.487 196.159C122.686 196.603 122.984 197.126 123.261 197.521C123.498 197.861 123.654 198.182 123.953 198.482C124.483 199.011 124.884 199.642 125.416 200.164C126.189 200.923 127.499 201.913 128.626 201.851C128.987 201.831 129.388 201.943 129.743 201.889C130.048 201.843 130.418 201.828 130.723 201.88C131.224 201.967 131.768 201.88 132.248 201.984C132.507 202.04 132.789 201.958 133.051 202.006C133.391 202.069 133.789 202.085 134.136 202.085C135.269 202.085 136.4 202.078 137.531 201.935C138.144 201.857 138.751 202.06 139.357 201.952C139.926 201.851 140.685 201.955 141.22 201.721C141.878 201.433 142.533 200.981 143.041 200.472C143.296 200.217 143.489 199.913 143.662 199.598C143.889 199.184 144.015 198.737 144.243 198.324C145.037 196.884 145.49 195.281 146.134 193.78C146.285 193.426 146.535 193.139 146.716 192.812C146.762 192.73 146.783 192.624 146.858 192.545C147.138 192.248 146.601 192.216 146.354 192.104" stroke="#00ADB5" stroke-opacity="0.5" stroke-width="0.546618" stroke-linecap="round" stroke-linejoin="round"/>
<path d="M120.945 193.332C121.507 192.596 121.985 192.055 122.802 191.639C123.487 191.29 124.197 190.876 124.816 190.421C125.766 189.722 127.075 189.411 128.232 189.2C129.492 188.971 130.732 188.703 132.014 188.703C132.41 188.703 132.803 188.823 133.2 188.829C133.675 188.837 134.151 188.852 134.624 188.892C135.349 188.954 136.094 188.939 136.821 188.955C137.835 188.977 138.805 189.502 139.819 189.583C140.422 189.632 141.125 189.722 141.712 189.886C141.931 189.947 142.182 189.989 142.387 190.089C142.642 190.213 142.821 190.422 143.055 190.568C143.811 191.039 144.657 191.26 145.474 191.618C145.725 191.727 146.155 191.915 146.433 191.915C146.815 191.915 146.795 192.62 146.795 191.915" stroke="#00ADB5" stroke-opacity="0.5" stroke-width="0.546618" stroke-linecap="round" stroke-linejoin="round"/>
<path d="M146.732 192.356C146.265 192.982 145.932 193.22 145.269 193.586C144.749 193.872 144.173 194.075 143.59 194.182C143.046 194.281 142.452 194.36 141.9 194.404C141.441 194.441 140.973 194.387 140.505 194.441C139.444 194.562 138.375 194.835 137.352 195.134C135.893 195.56 134.483 195.605 132.976 195.686C131.33 195.776 129.68 195.65 128.067 195.316C127.524 195.203 126.949 195.304 126.395 195.282C125.785 195.258 125.188 195.09 124.614 194.892C124.373 194.809 124.151 194.681 123.897 194.623C123.601 194.555 123.299 194.582 123.005 194.511C122.595 194.412 122.116 194.233 121.77 193.993C121.62 193.889 121.393 193.803 121.275 193.645C121.241 193.599 121.196 193.497 121.196 193.442C121.196 193.312 121.09 193.345 121.259 193.458" stroke="#00ADB5" stroke-opacity="0.5" stroke-width="0.546618" stroke-linecap="round" stroke-linejoin="round"/>
<path d="M133.193 198.748C133.576 198.705 134.083 198.712 133.924 198.219C133.873 198.061 133.745 198.044 133.609 197.999C133.204 197.864 132.479 198.125 132.327 198.548C132.054 199.307 132.571 200.126 133.384 199.864C133.605 199.792 133.997 199.636 134.137 199.435C134.306 199.194 134.053 199.265 133.886 199.031" stroke="#00ADB5" stroke-opacity="0.5" stroke-width="0.546618" stroke-linecap="round" stroke-linejoin="round"/>
<path d="M132.028 197.929C132.639 197.684 132.951 197.583 133.569 197.583C133.818 197.583 133.943 197.565 134.162 197.708C134.525 197.946 134.649 198.396 134.612 198.793C134.58 199.128 134.469 199.587 134.351 199.906C134.263 200.142 134.046 200.183 133.824 200.227C133.622 200.268 133.179 200.155 133.02 200.243C132.85 200.337 132.332 200.369 132.201 200.194C132.081 200.033 131.951 199.964 131.863 199.769C131.78 199.583 131.742 199.405 131.675 199.22C131.582 198.965 131.416 198.271 131.76 198.118C131.962 198.028 132.049 197.974 132.28 197.974C132.345 197.974 132.402 198.023 132.469 198.023C132.565 198.023 132.282 197.96 132.185 197.96" stroke="#00ADB5" stroke-opacity="0.5" stroke-width="0.546618" stroke-linecap="round" stroke-linejoin="round"/>
<path d="M133.13 195.41C133.574 194.836 133.979 194.243 134.438 193.685C134.685 193.385 134.991 193.127 135.257 192.84C136.018 192.019 136.793 191.119 137.374 190.159C137.945 189.213 138.725 188.182 139.572 187.472C140.02 187.097 140.42 186.682 140.809 186.249C141.187 185.83 141.361 185.243 141.719 184.799C141.996 184.456 143.81 182.119 144.126 183.54C144.25 184.098 143.705 184.489 143.363 184.831C142.975 185.219 142.585 185.712 142.254 186.153C141.935 186.578 141.547 186.952 141.238 187.381C140.816 187.964 140.049 188.382 139.742 189.043C139.488 189.588 139.068 190.026 138.752 190.531C138.314 191.232 137.802 191.816 137.286 192.457C136.878 192.965 136.237 193.383 135.948 193.962C135.706 194.445 135.277 194.649 134.886 194.962C134.716 195.098 134.509 195.174 134.358 195.363C134.308 195.425 134.218 195.498 134.171 195.427C134.144 195.387 134.041 195.477 134.06 195.522C134.128 195.679 133.964 195.145 133.949 195.095" stroke="#00ADB5" stroke-opacity="0.5" stroke-width="0.546618" stroke-linecap="round" stroke-linejoin="round"/>
<path d="M132.878 195.567C132.998 195.629 133.759 196.206 133.759 195.741C133.759 195.6 133.94 195.365 134.004 195.221C134.052 195.112 133.618 195.217 133.553 195.3C133.468 195.409 133.304 195.497 133.57 195.504C133.775 195.51 133.935 195.422 134.09 195.302C134.135 195.267 134.735 195.362 134.2 195.347C133.916 195.339 133.639 195.347 133.366 195.347C133.13 195.347 133.608 195.284 133.677 195.284C133.732 195.284 133.278 195.554 133.2 195.466C133.18 195.444 133.147 195.385 133.224 195.347" stroke="#00ADB5" stroke-opacity="0.5" stroke-width="0.546618" stroke-linecap="round" stroke-linejoin="round"/>
<path d="M122.865 193.237C122.901 193.256 124.026 193.845 124.03 193.773C124.035 193.685 123.973 193.608 124.016 193.521C124.207 193.14 124.453 193.323 124.781 193.47C125.036 193.585 124.648 192.311 125.419 192.849C125.817 193.127 125.924 193.083 125.858 192.616C125.809 192.263 125.931 192.262 126.234 192.3C126.441 192.325 126.589 192.37 126.707 192.174C126.85 191.936 127.011 191.8 127.303 191.903C127.545 191.988 127.761 192.228 127.928 191.922C128.001 191.787 127.939 191.385 128.171 191.462C128.316 191.51 128.507 191.7 128.673 191.64C128.798 191.595 128.894 191.206 129.037 191.268C129.185 191.332 129.336 191.613 129.523 191.546C129.613 191.513 129.781 191.218 129.603 191.254" stroke="#00ADB5" stroke-opacity="0.5" stroke-width="0.546618" stroke-linecap="round" stroke-linejoin="round"/>
<path d="M127.305 192.671C127.695 192.988 129.157 194.684 129.586 193.418C129.663 193.191 129.675 192.741 129.89 193.113C130.068 193.42 130.335 193.632 130.625 193.342C130.817 193.15 130.903 192.824 131.178 192.723C131.43 192.631 131.615 193.105 131.825 192.828C131.994 192.605 131.912 192.221 131.664 192.086C131.583 192.042 131.56 192.194 131.524 192.23" stroke="#00ADB5" stroke-opacity="0.5" stroke-width="0.546618" stroke-linecap="round" stroke-linejoin="round"/>
<path d="M130.674 190.719C131.282 190.614 132.048 190.401 132.511 190.946C132.725 191.198 132.705 191.521 132.563 191.807C132.46 192.016 132.181 192.12 132.003 191.915C131.858 191.747 132.158 191.47 132.266 191.367C132.634 191.016 133.181 191.579 133.296 191.96C133.393 192.279 132.521 193.018 132.626 192.702" stroke="#00ADB5" stroke-opacity="0.5" stroke-width="0.546618" stroke-linecap="round" stroke-linejoin="round"/>
<path d="M140.907 191.789C141.087 191.727 142.249 191.353 142.026 191.971C141.912 192.288 141.474 192.458 141.187 192.562C141.051 192.611 140.7 192.603 140.928 192.405C141.125 192.233 141.403 192.153 141.662 192.174C142.673 192.256 141.26 193.417 140.97 193.577C140.406 193.888 139.639 194.215 139.049 193.836" stroke="#00ADB5" stroke-opacity="0.5" stroke-width="0.546618" stroke-linecap="round" stroke-linejoin="round"/>
<path d="M134.704 189.931C134.944 190.321 135.232 190.713 135.437 191.123C135.507 191.264 135.202 190.903 135.131 190.762C135.112 190.725 134.981 190.312 134.968 190.314C134.815 190.349 134.779 191.051 134.737 191.18C134.541 191.793 134.056 191.559 133.581 191.513C133.006 191.457 132.748 192.025 132.43 192.387C132.176 192.677 132.075 192.766 132.248 193.112C132.388 193.391 132.446 193.662 132.248 193.914C132.094 194.112 131.901 194.236 131.715 194.399C131.544 194.548 131.789 194.524 131.757 194.434C131.669 194.189 131.13 194.24 130.954 194.252C130.298 194.295 129.631 194.131 128.988 194.172C128.646 194.193 128.324 194.384 127.985 194.434C127.641 194.485 128.096 194.784 128.225 194.869C128.447 195.017 127.791 194.555 127.55 194.441C127.146 194.25 126.772 194.102 126.563 193.678C126.353 193.254 126.169 192.965 125.814 192.653C125.692 192.546 125.678 192.382 125.737 192.237C125.876 191.9 126.182 191.625 126.486 191.443" stroke="#00ADB5" stroke-opacity="0.5" stroke-width="0.546618" stroke-linecap="round" stroke-linejoin="round"/>
<path d="M134.641 191.191C133.852 190.64 133.201 190.403 132.273 190.278C131.947 190.234 131.599 190.008 131.386 189.758C131.197 189.537 131.304 189.595 131.081 189.896C130.777 190.308 130.552 189.939 130.163 190.047C129.568 190.213 129.057 190.766 128.452 190.869C128.287 190.897 128.327 190.62 128.12 190.74C127.772 190.94 127.505 191.13 127.098 191.194C126.852 191.233 126.386 191.395 126.423 191.695" stroke="#00ADB5" stroke-opacity="0.5" stroke-width="0.546618" stroke-linecap="round" stroke-linejoin="round"/>
<path d="M139.994 191.191C140.755 191.264 141.527 191.255 142.285 191.336C142.552 191.365 142.689 191.473 142.877 191.647C143.046 191.805 143.31 192.176 143.554 192.197C143.904 192.226 144.085 192.08 144.412 191.978C144.609 191.916 145.238 191.978 145.032 191.978" stroke="#00ADB5" stroke-opacity="0.5" stroke-width="0.546618" stroke-linecap="round" stroke-linejoin="round"/>
<path d="M139.427 192.041C138.608 192.58 138.171 193.399 137.295 193.89C137.121 193.987 136.59 194.175 136.63 194.495C136.659 194.726 138.433 194.002 138.703 193.867" stroke="#00ADB5" stroke-opacity="0.5" stroke-width="0.546618" stroke-linecap="round" stroke-linejoin="round"/>
<path d="M142.481 192.797C142.927 193.128 143.31 193.602 143.867 193.433C144.017 193.388 144.332 193.37 144.434 193.269" stroke="#00ADB5" stroke-opacity="0.5" stroke-width="0.546618" stroke-linecap="round" stroke-linejoin="round"/>
<path d="M252.516 179.07C250.217 179.512 248.546 180.176 247.088 182.049C246.165 183.237 246.367 185.106 246.972 186.365C247.97 188.439 250.421 189.61 252.632 189.712C255.209 189.83 258.79 189.073 259.318 186C259.601 184.353 258.028 182.796 257.291 181.445C256.692 180.346 255.789 178.865 254.527 178.4C254.012 178.21 252.817 178.276 252.442 178.789C252.275 179.018 252.059 179.26 251.937 179.517C251.838 179.726 251.944 178.987 251.921 178.772" stroke="#00ADB5" stroke-opacity="0.5" stroke-width="0.546618" stroke-linecap="round" stroke-linejoin="round"/>
<path d="M253.484 184.73C252.864 185.049 251.857 185.261 252.4 185.959C252.524 186.118 252.701 186.11 252.851 185.959C252.98 185.83 253.629 185.155 253.149 184.995C252.172 184.669 252.529 186.619 253.228 185.756C253.603 185.293 253.078 184.837 252.607 185.119C252.046 185.456 252.49 186.043 252.93 185.533C253.261 185.148 252.997 184.854 252.636 185.214C252.313 185.537 252.641 186.052 252.959 185.616C253.285 185.168 252.913 184.788 252.52 185.181C252.066 185.636 252.558 185.588 252.88 185.289C253.205 184.987 252.629 185.032 252.442 185.268C252.007 185.818 252.688 185.74 252.798 185.268C252.959 184.576 252.244 186.167 252.591 184.954" stroke="#00ADB5" stroke-opacity="0.5" stroke-width="0.546618" stroke-linecap="round" stroke-linejoin="round"/>
<path d="M250.952 182.422C251.614 183.295 252.292 184.122 252.847 184.995C253.001 185.237 252.878 185.48 252.963 185.475C253.277 185.458 253.597 185.401 253.931 185.401C254.695 185.401 255.297 185.028 256.033 185.028C256.925 185.028 258.235 184.797 256.761 184.06" stroke="#00ADB5" stroke-opacity="0.5" stroke-width="0.546618" stroke-linecap="round" stroke-linejoin="round"/>
<path d="M250.208 178.996C250.068 178.292 249.389 176.585 250.654 176.766C251.109 176.831 251.413 177.301 251.68 177.597C252.376 178.37 252.301 179.302 251.176 179.368C250.881 179.386 250.466 179.97 250.133 179.554C249.756 179.084 250.141 179.115 250.208 178.549C250.251 178.179 250.009 178.209 249.906 177.846C249.826 177.567 249.991 177.261 250.059 177.06" stroke="#00ADB5" stroke-opacity="0.5" stroke-width="0.546618" stroke-linecap="round" stroke-linejoin="round"/>
<path d="M250.655 178.177C250.648 178.355 250.374 179.957 250.957 179.695C251.152 179.607 251.32 179.48 251.399 179.277C251.476 179.081 251.395 178.964 251.308 178.772C251.086 178.279 250.442 177.512 250.638 178.623C250.762 179.325 251.545 179.161 251.606 178.491C251.653 177.979 251.008 177.294 250.597 177.879C250.306 178.292 250.824 179.204 251.126 178.566C251.28 178.241 250.913 177.417 250.522 177.821C250.122 178.235 250.724 179.11 251.118 178.756C251.508 178.406 251.243 177.339 250.82 177.746C250.433 178.119 251.014 178.86 251.308 178.292C251.637 177.659 250.913 177.182 250.688 177.846C250.487 178.438 251.114 179.074 251.259 178.268C251.369 177.654 250.241 177.327 250.241 178.061C250.241 178.737 250.845 178.668 250.845 178.053C250.845 177.411 250.199 177.556 250.469 178.094C250.738 178.632 251.098 177.677 250.795 177.374C250.442 177.02 249.974 177.567 250.39 177.908C250.674 178.14 251.062 177.176 250.584 176.997C250.172 176.843 250.4 177.684 250.543 177.494C250.764 177.199 250.425 177.001 250.659 177.06C250.865 177.111 251.366 177.221 251.507 177.403C251.618 177.546 252.07 178.342 252.07 178.549C252.07 179.182 251.102 179.523 250.547 179.364C250.149 179.25 250.031 179.532 250.171 179.439C250.51 179.213 250.58 178.623 250.58 178.847" stroke="#00ADB5" stroke-opacity="0.5" stroke-width="0.546618" stroke-linecap="round" stroke-linejoin="round"/>
<path d="M250.58 189.646C250.197 190.459 249.856 191.276 249.405 192.045C249.303 192.218 249.113 192.572 249.091 192.773C249.03 193.317 249.576 191.478 249.686 191.209" stroke="#00ADB5" stroke-opacity="0.5" stroke-width="0.546618" stroke-linecap="round" stroke-linejoin="round"/>
<path d="M258.102 188.082C259.045 189.273 260.085 190.122 260.82 191.429C260.892 191.557 261.018 191.66 261.118 191.76C261.453 192.094 260.497 191.046 260.187 190.688" stroke="#00ADB5" stroke-opacity="0.5" stroke-width="0.546618" stroke-linecap="round" stroke-linejoin="round"/>
<path d="M195.632 118.644C196.221 120.87 198.499 129.144 199.043 132.167C200.543 140.491 198.19 129.133 198.184 132.809" stroke="#00ADB5" stroke-opacity="0.5" stroke-width="1.09324" stroke-linecap="round" stroke-linejoin="round"/>
<path d="M191.635 122.243C191.434 118.856 190.674 114.155 195.423 114.639C197.658 114.866 200.119 116.193 201.512 117.967C203.664 120.709 202.529 124.959 200.203 127.141C198.965 128.302 197.764 128.884 196.144 129.323C193.4 130.067 195.566 126.255 196.007 125.21" stroke="#00ADB5" stroke-opacity="0.5" stroke-width="1.09324" stroke-linecap="round" stroke-linejoin="round"/>
<path d="M203.987 126.382C208.706 126.129 213.05 125.2 214.738 130.318C215.719 133.292 216.914 136.906 216.096 140.04C215.357 142.872 213.766 144.643 210.855 143.436C206.697 141.712 206.702 138.466 208.966 135.23C209.799 134.038 212.991 131.651 212.993 130.258" stroke="#00ADB5" stroke-opacity="0.5" stroke-width="1.09324" stroke-linecap="round" stroke-linejoin="round"/>
<path d="M212.493 120.859C212.332 122.101 212.33 130.884 209.952 130.968C209.507 130.984 209.132 131.216 208.743 131.41C207.246 132.155 208.157 131.485 208.715 130.709C209.981 128.952 212.544 129.601 213.828 127.27C215.221 124.738 215.863 123.492 213.865 121.534C212.465 120.161 213.08 117.826 211.978 121.116" stroke="#00ADB5" stroke-opacity="0.5" stroke-width="1.09324" stroke-linecap="round" stroke-linejoin="round"/>
<path d="M219.457 112.888C221.281 116.994 222.948 122.341 225.874 125.916C226.647 126.86 227.081 126.038 227.069 125.302C227.054 124.373 226.792 123.435 226.523 122.555" stroke="#00ADB5" stroke-opacity="0.5" stroke-width="1.09324" stroke-linecap="round" stroke-linejoin="round"/>
<path d="M214.162 123.565C217.056 122.427 224.161 121.275 225.372 117.661" stroke="#00ADB5" stroke-opacity="0.5" stroke-width="1.09324" stroke-linecap="round" stroke-linejoin="round"/>
<path d="M223.062 113.023C235.604 134.961 223.385 119.542 229.76 115.53C233.63 113.094 233.952 124.573 235.025 119.607" stroke="#00ADB5" stroke-opacity="0.5" stroke-width="1.09324" stroke-linecap="round" stroke-linejoin="round"/>
<path d="M234.264 112.268C234.719 113.629 236.247 122.61 239.429 120.558C240.851 119.641 242.509 117.892 242.783 116.172C243.077 114.327 241.925 109.64 239.316 110.145C238.126 110.375 236.136 110.431 235.359 111.562C234.608 112.655 234.135 115.216 235.036 112.527" stroke="#00ADB5" stroke-opacity="0.5" stroke-width="1.09324" stroke-linecap="round" stroke-linejoin="round"/>
<path d="M243.15 110.094C246.707 107.81 250.887 107.06 251.429 112.438C251.497 113.113 251.509 113.963 251.819 114.584C252.177 115.305 251.44 112.823 250.742 112.423" stroke="#00ADB5" stroke-opacity="0.5" stroke-width="1.09324" stroke-linecap="round" stroke-linejoin="round"/>
<path d="M242.889 112.153C243.05 114.964 242.648 118.772 243.962 121.41C244.007 121.5 244.319 122.188 244.161 121.81C243.85 121.065 243.721 120.558 243.135 119.749" stroke="#00ADB5" stroke-opacity="0.5" stroke-width="1.09324" stroke-linecap="round" stroke-linejoin="round"/>
<path d="M152.869 137.602C152.376 142.171 153.235 156.239 145.474 155.364C143.856 155.181 142.387 154.911 141.618 153.387C140.813 151.79 140.147 150.401 140.067 148.588C139.969 146.361 140.855 145.31 142.656 144.305C143.288 143.953 141.931 145.38 141.81 145.518C141.019 146.427 143.704 145.319 144.731 145.091" stroke="#00ADB5" stroke-opacity="0.5" stroke-width="1.09324" stroke-linecap="round" stroke-linejoin="round"/>
<path d="M162.832 139.798C158.906 140.165 153.366 140.909 152.732 145.819C152.389 148.483 156.349 148.807 158.068 149.714C161.021 151.273 163.262 156.356 159.95 158.593C157.646 160.149 155.904 159.322 153.663 159.478C151.386 159.635 152.971 158.796 154.321 158.566" stroke="#00ADB5" stroke-opacity="0.5" stroke-width="1.09324" stroke-linecap="round" stroke-linejoin="round"/>
<path d="M184.102 18.8983C183.787 22.0508 183.596 25.2355 183.207 28.3805C183.17 28.6831 182.872 29.8776 183.224 28.9119C183.481 28.2057 183.398 27.4699 183.812 26.8003C184.382 25.878 186.956 22.3648 188.165 22.7202C190.589 23.4324 188.143 27.9273 187.449 29.2152C187.21 29.6594 186.558 30.623 186.895 31.1212C187.345 31.7853 188.178 29.331 188.213 29.2559" stroke="#00ADB5" stroke-opacity="0.5" stroke-width="1.09324" stroke-linecap="round" stroke-linejoin="round"/>
<path d="M193.673 20.9684C193.386 22.3768 190.973 29.3287 193.298 30.4803C193.953 30.8052 195.405 30.1918 195.855 29.663C196.325 29.1124 196.079 28.2692 196.029 27.6301" stroke="#00ADB5" stroke-opacity="0.5" stroke-width="1.09324" stroke-linecap="round" stroke-linejoin="round"/>
<path d="M188.89 21.1203C191.441 21.8786 194.063 22.3836 196.597 23.166C197.195 23.3507 197.419 23.4343 197.741 23.9679C198.242 24.7978 196.912 24.0397 196.682 23.7883" stroke="#00ADB5" stroke-opacity="0.5" stroke-width="1.09324" stroke-linecap="round" stroke-linejoin="round"/>
<path d="M200.423 26.0479C199.838 27.815 199.287 29.6043 198.619 31.3432C198.487 31.689 198.467 31.8154 198.395 31.5513C198.326 31.297 198.259 31.1471 198.372 30.8784C198.972 29.4507 200.373 27.3987 201.695 26.6012C203.122 25.74 202.343 28.6327 202.151 29.2183C201.936 29.8759 201.356 31.6784 202.016 29.9342C202.408 28.8963 203.309 26.3166 204.827 26.6921C205.747 26.9195 205.534 28.1628 205.372 28.8202C205.072 30.0325 204.774 31.2367 204.473 32.4531C204.034 34.2305 204.271 33.2707 204.592 31.9718" stroke="#00ADB5" stroke-opacity="0.5" stroke-width="1.09324" stroke-linecap="round" stroke-linejoin="round"/>
<path d="M211.759 22.1787C210.843 25.4738 209.719 28.7594 208.93 32.0887C208.837 32.4791 208.635 33.9249 209.257 34.0971C209.847 34.2607 212.181 32.8587 211.611 32.3727" stroke="#00ADB5" stroke-opacity="0.5" stroke-width="1.09324" stroke-linecap="round" stroke-linejoin="round"/>
<path d="M53.1621 156.584C50.9958 160.7 48.8363 164.819 46.664 168.931C46.0449 170.103 44.8229 173.69 44.6716 172.373C44.4664 170.587 45.5575 168.087 46.0205 166.414C46.6739 164.052 48.0043 159.334 51.3194 159.351C53.8219 159.365 56.6352 163.034 57.0232 165.324C57.2972 166.94 58.094 165.115 59.1755 164.627" stroke="#00ADB5" stroke-opacity="0.5" stroke-width="1.09324" stroke-linecap="round" stroke-linejoin="round"/>
<path d="M59.8774 169.769C61.3332 173.155 63.4792 178.879 67.8985 175.73C69.9291 174.283 68.92 171.806 66.9154 171.02C62.0028 169.093 55.8126 174.475 54.5875 178.898C53.3626 183.321 58.198 184.677 61.5243 185.114C63.3648 185.356 62.952 183.783 64.5358 183.235" stroke="#00ADB5" stroke-opacity="0.5" stroke-width="1.09324" stroke-linecap="round" stroke-linejoin="round"/>
<path d="M72.1121 181.476C68.2958 179.882 63.24 178.461 61.0894 183.338C60.0528 185.689 64.692 185.965 66.068 185.9C68.6961 185.776 74.5482 179.692 72.5765 181.435C70.8464 182.963 69.0953 184.768 68.3839 187.025C67.9244 188.483 68.4521 191.705 70.1426 189.48" stroke="#00ADB5" stroke-opacity="0.5" stroke-width="1.09324" stroke-linecap="round" stroke-linejoin="round"/>
<path d="M86.9526 184.527C81.4137 185.058 74.8493 185.336 72.8842 191.559C71.9182 194.619 74.1846 196.746 76.9155 197.644C78.8239 198.271 80.7693 196.909 81.9271 195.527" stroke="#00ADB5" stroke-opacity="0.5" stroke-width="1.09324" stroke-linecap="round" stroke-linejoin="round"/>
<path d="M91.9834 185.371C91.6797 185.74 78.0357 200.611 84.5393 200.726C86.3401 200.758 88.1882 199.71 89.4284 198.532" stroke="#00ADB5" stroke-opacity="0.5" stroke-width="1.09324" stroke-linecap="round" stroke-linejoin="round"/>
<path d="M80.4265 188.076C83.0462 189.883 85.629 191.796 88.5025 193.192C89.2487 193.555 90.4924 193.728 91.0062 194.48C91.2947 194.903 90.841 193.899 90.7905 193.753" stroke="#00ADB5" stroke-opacity="0.5" stroke-width="1.09324" stroke-linecap="round" stroke-linejoin="round"/>
<path d="M51.2057 69.0132C53.4041 72.7729 60.3856 83.7415 57.5513 80.4346C55.7397 78.3209 54.3636 75.5157 53.215 73.0153C52.0096 70.3914 50.8778 65.7093 55.4711 65.9469C59.4134 66.1509 60.9873 70.1768 61.6808 73.4767C61.9867 74.9326 62.0648 76.0634 62.7178 77.3876C63.3855 78.7416 63.4225 73.5252 63.6763 72.1717" stroke="#00ADB5" stroke-opacity="0.5" stroke-width="1.09324" stroke-linecap="round" stroke-linejoin="round"/>
<path d="M65.4095 61.367C65.5321 61.9358 67.4324 74.937 70.1906 72.4365C71.352 71.3836 71.6072 68.7886 71.7563 67.367C72.2223 62.9234 70.3452 62.3746 67.2258 61.4342C65.7376 60.9856 65.4326 61.0059 65.0239 62.5378C64.1847 65.6838 65.5075 64.7998 67.2026 63.0505" stroke="#00ADB5" stroke-opacity="0.5" stroke-width="1.09324" stroke-linecap="round" stroke-linejoin="round"/>
<path d="M77.4027 57.6995C75.8702 60.282 73.9161 63.3201 74.9941 66.4836C75.4413 67.7957 76.4815 67.4491 77.2101 66.7103C78.3598 65.5446 78.9591 63.6285 78.8952 62.0277C78.7726 58.9587 76.8502 56.3326 74.8331 54.1521C74.5535 53.8498 72.0059 51.7497 72.5048 53.5528C73.4009 56.7915 75.8947 59.9068 77.6326 62.7217C80.4968 67.361 81.3752 65.5594 82.6618 61.2045" stroke="#00ADB5" stroke-opacity="0.5" stroke-width="1.09324" stroke-linecap="round" stroke-linejoin="round"/>
<path d="M82.9341 58.5024C83.8851 59.3892 91.3901 64.75 91.6231 59.995C91.6442 59.5636 91.0943 59.4289 90.913 59.0613C90.4458 58.1139 89.6719 57.4891 89.2507 56.9923" stroke="#00ADB5" stroke-opacity="0.5" stroke-width="1.09324" stroke-linecap="round" stroke-linejoin="round"/>
<path d="M83.5601 61.7244C80.5885 57.8222 76.4375 53.7651 80.6927 49.9073C82.4857 48.2818 86.2055 49.5671 86.1083 52.283C86.063 53.548 85.7961 56.6759 83.9795 57.0061C83.0189 57.1808 82.5762 56.5517 83.4647 55.673" stroke="#00ADB5" stroke-opacity="0.5" stroke-width="1.09324" stroke-linecap="round" stroke-linejoin="round"/>
<path d="M90.3438 45.5403C92.2648 46.7628 105.955 54.8531 98.7843 58.3894C97.6667 58.9405 96.6834 57.656 96.0893 56.8296C94.75 54.9666 98.6515 52.3237 98.8142 50.3504" stroke="#00ADB5" stroke-opacity="0.5" stroke-width="1.09324" stroke-linecap="round" stroke-linejoin="round"/>
<path d="M101.58 39.0363C100.462 39.9495 94.0479 45.6217 99.0917 46.7185C101.878 47.3242 104.511 44.5481 106.628 43.1624C110.039 40.93 110.76 45.2256 109.822 47.6501C109.248 49.135 104.456 53.9941 105.768 50.1311" stroke="#00ADB5" stroke-opacity="0.5" stroke-width="1.09324" stroke-linecap="round" stroke-linejoin="round"/>
<path d="M139.437 250.159C135.17 252.307 129.579 256.223 134.192 261.418C136.405 263.911 140.489 262.89 143.403 262.602C144.222 262.521 146.481 263.308 145.866 262.762C144.536 261.579 143.579 261.656 143.18 259.659" stroke="#00ADB5" stroke-opacity="0.5" stroke-width="1.09324" stroke-linecap="round" stroke-linejoin="round"/>
<path d="M152.104 248.72C152.104 251.866 152.074 254.117 155.302 255.341C156.696 255.87 157.571 256.354 157.941 257.916C158.359 259.681 157.128 262.238 155.67 263.226C153.868 264.446 151.604 264.872 149.577 264.041C147.84 263.33 149.76 262.488 150.664 261.674" stroke="#00ADB5" stroke-opacity="0.5" stroke-width="1.09324" stroke-linecap="round" stroke-linejoin="round"/>
<path d="M166.209 245.266C165.643 247.46 163.091 253.326 165.361 255.597C166.278 256.514 168.053 256.005 169.184 256.269C170.309 256.532 171.273 257.393 171.966 258.284C173.064 259.695 172.019 261.833 170.751 262.826C168.783 264.366 165.973 263.689 163.682 263.689C162.432 263.689 163.286 263.601 163.906 262.826" stroke="#00ADB5" stroke-opacity="0.5" stroke-width="1.09324" stroke-linecap="round" stroke-linejoin="round"/>
<path d="M161.246 217.965C163.464 217.119 167.578 215.772 169.723 214.255C171.987 212.653 169.616 212.193 168.411 212.575C166.37 213.224 165.137 215.362 164.445 217.245C162.623 222.204 168.418 227.809 173.289 227.241C177.791 226.716 178.418 224.512 179.094 221.132" stroke="#00ADB5" stroke-opacity="0.5" stroke-width="1.09324" stroke-linecap="round" stroke-linejoin="round"/>
<path d="M181.973 215.374C181.469 216.195 176.678 226.06 175.352 221.42" stroke="#00ADB5" stroke-opacity="0.5" stroke-width="1.09324" stroke-linecap="round" stroke-linejoin="round"/>
<path d="M173.049 215.662C175.07 218.364 179.954 228.025 184.852 227.753C185.562 227.713 184.62 224.978 184.564 224.586" stroke="#00ADB5" stroke-opacity="0.5" stroke-width="1.09324" stroke-linecap="round" stroke-linejoin="round"/>
<path d="M186.291 215.662C187.408 222.203 189.645 241.974 188.37 235.461C187.713 232.103 181.714 213.932 186.995 214.687C189.285 215.014 195.132 218.355 193.6 221.419C192.739 223.142 187.4 223.744 189.746 222.571" stroke="#00ADB5" stroke-opacity="0.5" stroke-width="1.09324" stroke-linecap="round" stroke-linejoin="round"/>
<path d="M197.23 220.268C197.942 223.969 198.626 227.667 199.245 231.383C199.351 232.019 199.209 231.495 199.022 231.143C197.844 228.935 196.232 225 196.287 222.523C196.339 220.176 199.568 218.575 201.261 220.268" stroke="#00ADB5" stroke-opacity="0.5" stroke-width="1.09324" stroke-linecap="round" stroke-linejoin="round"/>
<path d="M206.442 224.586C206.367 227.295 208.333 236.779 212.999 234.022C213.668 233.627 215.317 232.661 215.366 231.783C215.392 231.314 214.54 231.207 214.215 231.207C213.359 231.207 213.146 230.146 212.775 229.48" stroke="#00ADB5" stroke-opacity="0.5" stroke-width="1.09324" stroke-linecap="round" stroke-linejoin="round"/>
<path d="M205.003 225.45C207.524 222.841 210.36 219.248 212.599 223.898C213.255 225.26 213.027 226.901 212.487 228.264C211.616 230.468 208.497 231.337 209.321 228.041" stroke="#00ADB5" stroke-opacity="0.5" stroke-width="1.09324" stroke-linecap="round" stroke-linejoin="round"/>
<path d="M220.548 220.268C222.521 223.421 230.5 231.92 225.266 235.797C223.591 237.038 222.498 237.032 220.612 236.965C217.949 236.869 219.356 236.194 220.26 234.086" stroke="#00ADB5" stroke-opacity="0.5" stroke-width="1.09324" stroke-linecap="round" stroke-linejoin="round"/>
<path d="M232.638 219.117C232.042 219.837 224.345 227.279 229.024 228.072C230.749 228.365 232.334 227.32 233.918 228.376C236.776 230.282 236.099 232.864 233.47 234.486C232.156 235.296 230.69 235.721 229.312 236.389C228.533 236.766 229.363 235.672 229.472 235.237" stroke="#00ADB5" stroke-opacity="0.5" stroke-width="1.09324" stroke-linecap="round" stroke-linejoin="round"/>
<path d="M226.017 215.95C225.349 216.441 218.152 220.435 219.172 222.859C220.46 225.917 220.886 222.153 221.124 220.844" stroke="#00ADB5" stroke-opacity="0.5" stroke-width="1.09324" stroke-linecap="round" stroke-linejoin="round"/>
<path d="M49.0864 121.783C50.3685 118.76 49.8434 116.125 49.8434 112.992C49.8434 112.383 49.7328 110.526 50.3733 110.194C51.3834 109.67 52.3273 109.32 53.5191 109.32C54.3114 109.32 55.1075 109.343 55.8994 109.32C56.6915 109.298 57.4588 108.975 58.2419 108.88C59.699 108.701 61.2146 108.95 62.6535 108.95C63.796 108.95 64.9779 109.098 66.0768 109.098C66.272 109.098 67.0674 109.191 67.1955 109.304C67.5878 109.65 67.4754 110.205 67.7843 110.507" stroke="#00ADB5" stroke-opacity="0.5" stroke-width="0.546618" stroke-linecap="round" stroke-linejoin="round"/>
<path d="M67.7093 110.775C67.7591 111.667 67.7778 112.919 68.1449 113.791C68.3827 114.356 68.1931 115.108 68.2412 115.709C68.3336 116.864 68.1616 117.99 68.1616 119.111C68.1616 120.614 68.237 122.097 68.237 123.592C68.237 124.875 66.9834 124.661 65.992 124.48C65.1355 124.325 63.9861 124.637 63.0934 124.648C61.3713 124.669 59.6411 124.799 57.9164 124.799C56.4758 124.799 55.4061 124.38 54.0796 123.877C53.3712 123.608 52.9431 123.668 52.1822 123.668C51.4615 123.668 50.8689 123.555 50.1465 123.781C49.7239 123.913 48.967 123.799 48.7266 123.366C48.4383 122.847 49.0114 122.622 49.0114 122.198C49.0114 121.841 48.9666 120.821 49.0868 121.783" stroke="#00ADB5" stroke-opacity="0.5" stroke-width="0.546618" stroke-linecap="round" stroke-linejoin="round"/>
<path d="M57.6815 112.736C57.6815 112.736 57.9831 112.886 58.2847 113.188C58.5863 113.414 59.2211 113.301 59.7549 113.301C60.0357 113.301 60.3324 113.082 60.5842 112.97C61.0944 112.743 60.7901 113.17 60.668 113.414C60.5328 113.684 60.6872 114.187 60.9319 114.357C61.3356 114.636 61.735 114.395 62.1298 114.197C62.2937 114.115 62.2487 114.077 62.2994 114.189C62.3682 114.34 62.356 114.56 62.356 114.725C62.356 115.101 62.3313 115.725 62.1298 116.053C61.8647 116.484 61.5969 116.762 61.1706 117.079C60.7495 117.392 60.1931 117.938 59.6334 117.938C58.5396 117.938 57.3786 117.699 56.8312 116.635C56.5992 116.184 56.1736 115.815 56.1736 115.299C56.1736 114.869 56.0313 114.353 56.1736 113.942C56.3462 113.443 56.7768 112.97 56.626 112.97C56.7029 112.992 57.3799 112.585 57.6815 112.736Z" stroke="#00ADB5" stroke-opacity="0.5" stroke-width="0.546618" stroke-linecap="round" stroke-linejoin="round"/>
<path d="M58.9257 112.472C59.3498 112.315 60.3186 111.986 60.5467 111.473C60.7229 111.076 60.1404 111.001 59.8304 111.001C59.4545 111.001 59.0089 111.521 58.9089 111.85C58.8533 112.032 58.8005 112.219 58.7456 112.405C58.7191 112.494 58.7544 112.559 58.7728 112.641C58.7868 112.704 59.362 112.402 59.3404 112.316" stroke="#00ADB5" stroke-opacity="0.5" stroke-width="0.546618" stroke-linecap="round" stroke-linejoin="round"/>
<path d="M66.5439 120.952L49.8512 121.318C48.0853 121.357 46.6741 122.8 46.6741 124.566C46.6741 126.36 48.1284 127.814 49.9225 127.814H66.6159C68.4272 127.814 69.8956 126.346 69.8956 124.535V124.231C69.8956 122.391 68.383 120.911 66.5439 120.952Z" stroke="#00ADB5" stroke-opacity="0.5" stroke-width="0.546618"/>
<path d="M53.5076 121.227C53.758 121.616 53.9741 122.082 54.2615 122.441C54.406 122.621 54.3828 122.585 54.6629 122.481C55.1306 122.308 55.6605 122.432 56.1484 122.432C56.5768 122.432 57.0748 122.208 57.4911 122.32C57.9734 122.45 58.542 122.202 59.0168 122.191C59.5888 122.177 60.1341 122.231 60.703 122.231C61.046 122.231 61.3803 122.03 61.6978 122.03C61.8819 122.03 62.4069 122.176 62.4204 121.838C62.427 121.674 62.5007 121.514 62.5007 121.348C62.5007 121.123 62.3661 121.22 62.1394 121.107" stroke="#00ADB5" stroke-opacity="0.5" stroke-width="0.546618" stroke-linecap="round" stroke-linejoin="round"/>
<path d="M135.184 38.8133C135.493 38.4197 136.086 37.6914 135.255 37.5626C135.067 37.5335 134.892 37.423 134.707 37.5066C134.139 37.7641 133.611 38.3311 133.611 39.0053C133.611 40.082 134.792 40.3152 135.65 40.3013C137.097 40.2777 137.537 38.8675 138.049 37.7252C138.565 36.5714 139.139 35.4362 139.674 34.2906C140.281 32.9943 141.275 31.9616 141.904 30.6772C142.173 30.1264 142.526 29.6414 142.873 29.1385C143.412 28.3585 143.796 27.5715 144.181 26.7065C144.497 25.9969 144.847 25.3489 145.235 24.6772C145.391 24.4056 145.332 23.9895 145.632 24.2799C145.859 24.5003 146.221 24.6452 146.527 24.7012C147.864 24.9461 149.095 25.2054 150.472 25.0959C151.865 24.9851 153.258 24.7855 154.629 24.5199C155.095 24.4296 154.897 24.5383 154.677 24.8212C154.304 25.3011 153.986 25.8096 153.628 26.2959C153.162 26.93 152.998 27.6936 152.723 28.4185C152.42 29.2154 152.059 29.9766 151.769 30.7865C151.21 32.3519 150.394 33.7794 149.384 35.0932C148.799 35.8546 148.076 37.1844 146.98 37.1306C145.284 37.0473 146.429 33.7087 147.239 33.0559C147.675 32.7045 148.152 33.0828 148.206 33.5546C148.279 34.2028 148.056 35.091 147.427 35.4079C146.763 35.7422 146.254 35.7021 146.765 34.8399C147.074 34.3182 147.258 34.8924 147.385 34.6372" stroke="#00ADB5" stroke-opacity="0.5" stroke-width="1.09324" stroke-linecap="round" stroke-linejoin="round"/>
<path d="M262.998 155.113C263.308 154.719 263.901 153.991 263.07 153.862C262.882 153.833 262.706 153.723 262.522 153.806C261.953 154.064 261.426 154.631 261.426 155.305C261.426 156.382 262.606 156.615 263.464 156.601C264.912 156.577 265.352 155.167 265.863 154.025C266.38 152.871 266.953 151.736 267.489 150.59C268.095 149.294 269.09 148.261 269.718 146.977C269.988 146.426 270.34 145.941 270.688 145.438C271.226 144.658 271.61 143.871 271.996 143.006C272.312 142.297 272.662 141.649 273.049 140.977C273.206 140.705 273.147 140.289 273.447 140.58C273.674 140.8 274.036 140.945 274.342 141.001C275.679 141.246 276.909 141.505 278.287 141.396C279.68 141.285 281.072 141.085 282.444 140.82C282.91 140.729 282.711 140.838 282.491 141.121C282.119 141.601 281.8 142.109 281.443 142.596C280.977 143.23 280.813 143.993 280.537 144.718C280.234 145.515 279.874 146.276 279.584 147.086C279.025 148.652 278.208 150.079 277.199 151.393C276.613 152.154 275.89 153.484 274.794 153.43C273.098 153.347 274.244 150.008 275.054 149.356C275.49 149.004 275.967 149.382 276.02 149.854C276.093 150.502 275.871 151.391 275.242 151.708C274.578 152.042 274.069 152.002 274.58 151.14C274.889 150.618 275.073 151.192 275.199 150.937" stroke="#00ADB5" stroke-opacity="0.5" stroke-width="1.09324" stroke-linecap="round" stroke-linejoin="round"/>
<path d="M249.332 87.2754C247.913 84.7036 247.997 83.9689 248.32 81.3802C248.498 79.9546 248.566 78.5618 248.927 77.1594C249.572 74.6514 249.781 71.2742 247.762 69.2549C243.789 65.2816 236.389 70.9324 238.63 75.9733C239.482 77.8919 240.956 79.3124 242.02 81.122C242.447 81.8478 242.686 82.6345 243.241 83.3127C243.773 83.963 244.434 84.7725 244.434 85.5801C244.434 86.2622 244.231 87.1467 244.713 87.7498C245.38 88.5829 245.143 88.1544 246.129 88.1544C246.808 88.1544 247.808 87.6153 248.355 87.1777C248.746 86.8653 248.955 87.7689 248.955 86.8986C248.955 86.1516 248.715 86.7731 249.206 86.7731" stroke="#00ADB5" stroke-opacity="0.5" stroke-width="0.546618" stroke-linecap="round" stroke-linejoin="round"/>
<path d="M246.192 89.6614C247.535 89.261 251.252 88.3668 250.392 89.473C249.354 90.8077 248.91 90.1388 247.636 90.4218C246.985 90.5666 246.35 92.577 247.071 92.6194C248.101 92.6801 248.785 91.2939 249.834 91.2939C250.789 91.2939 250.72 92.5508 250.148 92.9962C249.392 93.5844 248.522 92.9521 248.013 93.8683C247.209 95.316 249.406 95.0804 250.029 94.7403C250.657 94.3977 251.255 93.8626 251.718 93.5543" stroke="#00ADB5" stroke-opacity="0.5" stroke-width="0.546618" stroke-linecap="round" stroke-linejoin="round"/>
<path d="M249.332 86.8672C249.315 86.9766 249.297 87.7149 249.002 87.7149C248.843 87.7149 248.77 87.6186 248.625 87.6992C248.455 87.7939 248.295 88.017 248.132 88.1474C247.988 88.2624 247.561 88.2482 247.48 88.3916C247.346 88.6259 247.074 88.7541 246.82 88.7823C246.491 88.8189 246.37 88.9839 246.02 88.9061C245.913 88.8824 245.902 88.8137 245.802 88.8137C245.647 88.8137 245.58 88.8877 245.463 88.7579C245.334 88.6142 245.123 88.5469 245.06 88.3288C244.976 88.0323 244.665 87.8763 245.125 88.0602" stroke="#00ADB5" stroke-opacity="0.5" stroke-width="0.546618" stroke-linecap="round" stroke-linejoin="round"/>
<path d="M243.273 74.4351C243.834 74.4381 244.299 74.4743 244.49 75.0699C244.62 75.4752 244.623 75.8735 244.623 76.2943C244.623 76.7035 244.371 77.0324 244.371 77.4175C244.371 77.9266 244.779 77.8433 245.123 77.9983C245.449 78.1448 245.685 78.2672 245.861 78.5948C246.036 78.9193 245.904 79.5467 245.88 79.8994C245.86 80.203 245.716 80.8481 245.925 81.1046C246.04 81.2441 246.663 81.4593 246.255 81.1535" stroke="#00ADB5" stroke-opacity="0.5" stroke-width="0.546618" stroke-linecap="round" stroke-linejoin="round"/>
<path d="M238.532 80.1174C238.082 80.4163 237.624 80.6666 237.121 80.8552C236.91 80.9343 236.632 81.0753 236.679 80.7453" stroke="#00ADB5" stroke-opacity="0.5" stroke-width="0.546618" stroke-linecap="round" stroke-linejoin="round"/>
<path d="M236.9 75.785C236.103 75.9769 235.311 76.1932 234.521 76.4059C234.389 76.4413 234.691 76.109 234.702 76.0989" stroke="#00ADB5" stroke-opacity="0.5" stroke-width="0.546618" stroke-linecap="round" stroke-linejoin="round"/>
<path d="M236.68 71.6723C235.854 71.5523 235.031 71.4034 234.21 71.2572C233.832 71.1899 233.672 71.2394 233.886 70.9188" stroke="#00ADB5" stroke-opacity="0.5" stroke-width="0.546618" stroke-linecap="round" stroke-linejoin="round"/>
<path d="M241.138 67.3085C240.486 67.1938 239.92 67.0834 239.331 66.7887C239.055 66.6508 238.789 66.4849 238.501 66.3736C238.158 66.2413 238.15 66.2816 238.532 66.0527" stroke="#00ADB5" stroke-opacity="0.5" stroke-width="0.546618" stroke-linecap="round" stroke-linejoin="round"/>
<path d="M246.82 64.4829C246.915 65.1493 246.884 65.5483 246.614 66.1521C246.469 66.4776 246.346 66.8889 246.274 67.2404C246.25 67.3615 246.236 67.4304 246.154 67.5212C246.123 67.5552 246.236 67.1509 246.255 67.0887" stroke="#00ADB5" stroke-opacity="0.5" stroke-width="0.546618" stroke-linecap="round" stroke-linejoin="round"/>
<path d="M251.624 67.1515C251.415 67.8454 251.118 68.511 250.94 69.2061C250.85 69.5577 250.906 69.5791 251.058 69.2235" stroke="#00ADB5" stroke-opacity="0.5" stroke-width="0.546618" stroke-linecap="round" stroke-linejoin="round"/>
<path d="M253.633 72.1432C252.92 72.7606 252.335 73.5269 251.781 74.285C251.711 74.38 251.631 74.4138 251.554 74.4908C251.379 74.6658 251.681 74.2705 251.718 74.2153" stroke="#00ADB5" stroke-opacity="0.5" stroke-width="0.546618" stroke-linecap="round" stroke-linejoin="round"/>
<path d="M93.7795 135.118C94.8233 139.82 95.9987 144.533 96.6892 149.306C97.0749 151.972 96.228 148.124 96.1227 147.58C95.8948 146.403 95.6335 145.36 95.6335 144.156C95.6335 141.732 95.5686 139.282 95.3888 136.856C95.263 135.158 93.177 130.101 95.8137 134.32C98.5022 138.621 100.4 143.377 102.225 148.07C102.477 148.716 102.825 149.329 103.101 149.949C103.251 150.288 100.429 147.53 99.3413 146.937" stroke="#00ADB5" stroke-opacity="0.5" stroke-width="1.09324" stroke-linecap="round" stroke-linejoin="round"/>
<path d="M92.1575 145.546C95.1702 144.344 101.813 142.076 103.744 138.697C104.553 137.281 104.396 137.936 102.122 138.362" stroke="#00ADB5" stroke-opacity="0.5" stroke-width="1.09324" stroke-linecap="round" stroke-linejoin="round"/>
<path d="M101.195 129.788C103.52 134.391 105.204 139.291 105.843 144.4C105.902 144.874 106.012 145.393 106.345 145.726C106.407 145.788 105.23 143.585 104.903 142.997" stroke="#00ADB5" stroke-opacity="0.5" stroke-width="1.09324" stroke-linecap="round" stroke-linejoin="round"/>
<path d="M101.195 129.556C102.998 130.636 109.62 134.625 105.302 137.165C104.923 137.388 104.479 137.594 104.208 137.95C103.634 138.705 103.565 138.927 103.976 137.899" stroke="#00ADB5" stroke-opacity="0.5" stroke-width="1.09324" stroke-linecap="round" stroke-linejoin="round"/>
<path d="M107.22 127.239C107.988 132.442 109.306 138.159 109.306 143.461C109.306 144.631 109.11 142.463 108.843 141.838" stroke="#00ADB5" stroke-opacity="0.5" stroke-width="1.09324" stroke-linecap="round" stroke-linejoin="round"/>
<path d="M112.551 136.508C113.823 140.301 114.477 142.536 110.748 143.641C109.474 144.018 111.014 142.168 111.34 141.941C112.456 141.169 113.567 138.683 112.319 137.435C111.822 136.939 110.634 137.566 110.285 136.972C109.77 136.096 110.924 134.438 111.624 134.011C113.636 132.781 113.383 134.514 112.551 133.959" stroke="#00ADB5" stroke-opacity="0.5" stroke-width="1.09324" stroke-linecap="round" stroke-linejoin="round"/>
<path d="M182.163 66.1325C182.931 70.1743 186.094 81.9764 184.254 78.2966C184.056 77.9002 183.89 77.5641 183.874 77.114C183.812 75.4497 183.688 73.7098 183.113 72.1301C182.633 70.8088 182.733 69.4391 182.733 68.0331C182.733 67.7515 182.255 65.5353 182.3 65.5201C182.784 65.3588 184.78 67.784 185.141 68.2021C186.966 70.3165 188.81 72.7463 190.114 75.2239C190.785 76.4992 190.987 76.956 189.386 77.1562" stroke="#00ADB5" stroke-opacity="0.5" stroke-width="1.09324" stroke-linecap="round" stroke-linejoin="round"/>
<path d="M181.973 74.3053C183.757 73.4004 185.456 72.6771 187.295 72.0245" stroke="#00ADB5" stroke-opacity="0.5" stroke-width="1.09324" stroke-linecap="round" stroke-linejoin="round"/>
<path d="M187.105 66.3226C188.931 69.0583 190.67 71.9693 192.796 74.4953C193.1 74.8556 193.736 75.51 193.736 74.6643C193.736 73.5102 193.097 72.3176 192.807 71.222C192.343 69.4695 191.911 67.709 191.519 65.9425C191.14 64.2371 191.407 64.8738 192.047 66.1536C193.107 68.2744 194.223 70.2062 195.7 72.0879C196.695 73.3556 196.798 72.6496 196.798 71.5388C196.798 69.521 195.813 67.8617 195.088 66.048C194.313 64.1107 194.365 61.466 193.483 59.702C193.14 59.016 193.092 61.19 192.997 61.9511" stroke="#00ADB5" stroke-opacity="0.5" stroke-width="1.09324" stroke-linecap="round" stroke-linejoin="round"/>
<path d="M197.368 59.4803C197.417 59.7035 198.125 65.237 199.375 64.612C199.922 64.3381 200.057 63.5002 200.621 63.2182C201.534 62.7613 202.522 63.5704 202.88 64.3586C203.827 66.4425 202.737 68.856 201.022 70.1239C198.646 71.8802 199.459 68.7183 199.459 67.8431" stroke="#00ADB5" stroke-opacity="0.5" stroke-width="1.09324" stroke-linecap="round" stroke-linejoin="round"/>
<path d="M198.509 59.1001C198.167 60.0348 197.545 64.3743 197.358 62.6902C197.242 61.6507 197.447 60.8602 197.558 59.8604C197.822 57.4886 199.637 59.3965 198.889 58.1498" stroke="#00ADB5" stroke-opacity="0.5" stroke-width="1.09324" stroke-linecap="round" stroke-linejoin="round"/>
<path d="M185.833 183.941C185.77 183.825 183.028 179.103 183.265 178.967C183.595 178.779 184.209 178.962 184.596 178.817C185.74 178.388 186.661 177.502 187.603 176.769C188.594 175.999 189.951 182.044 190.252 183.317C190.617 184.857 191.567 186.904 189.789 187.793C188.187 188.594 186.079 188.353 184.33 188.314C181.476 188.25 179.504 183.566 179.171 181.234C178.928 179.537 176.577 174.088 179.101 172.998C179.777 172.707 180.925 172.906 181.658 172.906C182.706 172.906 183.622 172.281 184.688 172.281C186.385 172.281 186.898 174.401 185.417 172.073" stroke="#00ADB5" stroke-opacity="0.5" stroke-width="1.09324" stroke-linecap="round" stroke-linejoin="round"/>
<path d="M190.622 173.739C190.918 174.816 191.87 180.801 194.37 179.268C194.846 178.976 195.192 178.269 195.365 177.764C195.825 176.417 195.922 175.291 194.891 174.259C194.118 173.486 192.625 171.908 191.501 171.865C188.716 171.758 191.173 174.878 190.83 174.363" stroke="#00ADB5" stroke-opacity="0.5" stroke-width="1.09324" stroke-linecap="round" stroke-linejoin="round"/>
<path d="M191.039 164.161C193.095 167.413 196.199 170.988 197.447 174.734C197.606 175.211 197.612 175.536 197.91 175.983C198.359 176.657 198.572 177.636 198.997 176.608C199.613 175.119 201.017 173.797 202.12 172.651C203.482 171.238 203.668 171.657 201.241 171.657" stroke="#00ADB5" stroke-opacity="0.5" stroke-width="1.09324" stroke-linecap="round" stroke-linejoin="round"/>
<path d="M205.405 163.12C205.147 163.704 201.225 171.466 205.012 169.702C205.766 169.351 206.534 168.805 206.435 167.909C206.339 167.045 205.617 166.366 205.243 165.618C205.032 165.196 204.187 163.159 204.48 163.745C205.35 165.484 206.517 168.581 207.811 169.875C209.319 171.382 210.222 169.798 208.737 168.95" stroke="#00ADB5" stroke-opacity="0.5" stroke-width="1.09324" stroke-linecap="round" stroke-linejoin="round"/>
<path d="M207.696 163.953C213.491 173.146 206.158 162.831 207.846 161.026C209.48 159.28 211.41 162.634 212.022 163.698C213.087 165.553 214.136 170.365 212.485 165.41" stroke="#00ADB5" stroke-opacity="0.5" stroke-width="1.09324" stroke-linecap="round" stroke-linejoin="round"/>
<path d="M214.983 156.041C214.885 156.388 211.776 165.136 214.104 164.323C215.093 163.977 216.087 163.196 216.614 162.299C217.223 161.263 217.507 159.844 217.065 158.701C216.764 157.922 216.439 157.09 216.024 156.365C215.039 154.64 217.694 159.969 218.488 161.79C219.65 164.456 222.45 173.802 215.851 171.946C212.972 171.136 215.683 166.66 215.4 166.66" stroke="#00ADB5" stroke-opacity="0.5" stroke-width="1.09324" stroke-linecap="round" stroke-linejoin="round"/>
<path d="M133.035 113.021C134.07 112.737 134.952 112.451 135.679 111.632C135.966 111.309 136.005 110.897 136.152 110.506C136.342 109.998 136.105 109.349 135.943 108.861C135.813 108.471 136.523 108.253 136.777 108.236C137.213 108.208 137.546 108.486 137.965 108.51C138.468 108.54 139.005 108.701 139.354 109.094C139.591 109.36 139.908 109.423 140.17 109.654C140.419 109.874 140.615 110.256 140.795 110.537C141.315 111.35 141.462 112.298 141.614 113.228C141.686 113.674 141.73 114.159 141.655 114.61C141.565 115.147 141.661 115.664 141.448 116.18C141.302 116.536 141.067 117.007 140.733 117.218C140.39 117.433 140.072 117.511 139.984 117.959C139.801 118.894 140.271 119.81 140.09 120.753C139.93 121.591 138.822 121.719 138.138 121.853C137.665 121.946 136.806 122.09 136.351 121.843C135.503 121.382 134.888 120.805 134.259 120.071C133.702 119.421 133.491 118.47 133.417 117.639C133.342 116.79 133.341 115.868 133.361 115.01C133.373 114.44 133.539 113.868 133.593 113.3C133.637 112.836 133.784 112.798 133.546 113.393" stroke="#00ADB5" stroke-opacity="0.5" stroke-width="0.546618" stroke-linecap="round" stroke-linejoin="round"/>
<path d="M139.031 108.792C139.381 107.89 139.765 106.989 140.033 106.06C140.154 105.642 140.182 105.2 140.333 104.792C140.507 104.318 140.594 103.782 140.668 103.286C140.722 102.931 140.748 102.301 141.074 102.078C141.311 101.914 141.447 101.541 141.701 101.344C142.028 101.092 142.492 100.857 142.724 100.521C142.951 100.19 143.194 99.5062 143.003 99.1235C142.897 98.9111 142.911 98.6819 142.807 98.4728C142.67 98.2005 142.548 97.9797 142.445 97.6852C142.355 97.4273 142.071 96.9129 142.401 96.7297C143.208 96.2815 143.264 96.987 143.514 97.631C143.643 97.9636 143.663 98.3697 143.783 98.7155C143.865 98.9522 144.01 98.7811 144.121 98.9169C144.288 99.1215 144.297 99.3775 144.423 99.5987C144.612 99.9298 144.39 100.602 144.294 100.926C144.116 101.526 143.933 102.069 143.669 102.646C142.99 104.13 141.882 105.38 141.123 106.819C140.834 107.366 140.603 107.918 140.462 108.523C140.382 108.867 140.147 109.195 140.147 109.559C140.147 109.89 140.065 110.061 140.24 109.535" stroke="#00ADB5" stroke-opacity="0.5" stroke-width="0.546618" stroke-linecap="round" stroke-linejoin="round"/>
<path d="M142.657 97.5896C142.065 97.6804 141.419 97.7151 140.89 97.9796C140.818 98.0159 140.931 97.9212 140.983 97.915C141.692 97.8316 142.466 97.1997 143.111 96.8924C143.591 96.6639 144.247 96.1487 144.795 96.1487C144.953 96.1487 144.268 96.5901 144.191 96.66" stroke="#00ADB5" stroke-opacity="0.5" stroke-width="0.546618" stroke-linecap="round" stroke-linejoin="round"/>
<path d="M142.052 98.6122C142.711 98.2294 143.858 97.814 144.34 97.1713C144.387 97.1088 144.422 97.0245 144.49 96.9854C144.729 96.8486 144.306 97.001 144.237 97.0319" stroke="#00ADB5" stroke-opacity="0.5" stroke-width="0.546618" stroke-linecap="round" stroke-linejoin="round"/>
<path d="M142.517 99.2165C143.308 98.9138 144.752 98.645 145.187 97.7756C145.25 97.65 145.111 97.6826 145.027 97.6826" stroke="#00ADB5" stroke-opacity="0.5" stroke-width="0.546618" stroke-linecap="round" stroke-linejoin="round"/>
<path d="M143.354 99.1235C143.304 100.189 143.314 101.273 142.706 102.186C142.409 102.631 142.203 102.928 142.099 103.449C141.988 104.006 141.865 104.471 141.611 104.98C141.36 105.482 141.066 105.893 140.818 106.375C140.69 106.624 140.374 106.865 140.436 107.165C140.467 107.316 140.392 107.452 140.343 107.593C140.198 108.013 139.926 108.383 139.672 108.745C139.499 108.991 139.501 109.433 139.728 108.978" stroke="#00ADB5" stroke-opacity="0.5" stroke-width="0.546618" stroke-linecap="round" stroke-linejoin="round"/>
<path d="M139.589 107.723C140.008 107.814 140.646 108.094 141.076 108.094C141.084 108.094 140.711 107.644 140.658 107.583" stroke="#00ADB5" stroke-opacity="0.5" stroke-width="0.546618" stroke-linecap="round" stroke-linejoin="round"/>
<path d="M139.868 105.817C140.461 106.07 141.055 106.321 141.644 106.584C141.782 106.645 141.774 106.654 141.727 106.607C141.625 106.505 141.538 106.394 141.448 106.282" stroke="#00ADB5" stroke-opacity="0.5" stroke-width="0.546618" stroke-linecap="round" stroke-linejoin="round"/>
<path d="M140.426 104.562C141.14 104.784 141.854 105.023 142.577 105.218C142.658 105.24 142.771 105.283 142.693 105.202C142.537 105.041 142.358 104.899 142.192 104.748" stroke="#00ADB5" stroke-opacity="0.5" stroke-width="0.546618" stroke-linecap="round" stroke-linejoin="round"/>
<path d="M140.798 102.981C141.611 103.379 142.421 103.808 143.256 104.162C143.393 104.22 143.439 104.263 143.411 104.154C143.373 104.006 143.316 103.867 143.261 103.725" stroke="#00ADB5" stroke-opacity="0.5" stroke-width="0.546618" stroke-linecap="round" stroke-linejoin="round"/>
<path d="M141.82 101.866C141.894 101.902 144.144 103.122 143.958 102.656" stroke="#00ADB5" stroke-opacity="0.5" stroke-width="0.546618" stroke-linecap="round" stroke-linejoin="round"/>
<path d="M142.285 101.122C142.964 101.282 143.65 101.427 144.33 101.541" stroke="#00ADB5" stroke-opacity="0.5" stroke-width="0.546618" stroke-linecap="round" stroke-linejoin="round"/>
<path d="M143.029 100.379C143.338 100.393 143.648 100.409 143.958 100.425" stroke="#00ADB5" stroke-opacity="0.5" stroke-width="0.546618" stroke-linecap="round" stroke-linejoin="round"/>
<path d="M136.893 114.323C136.57 114.451 134.581 114.946 134.569 115.495C134.564 115.71 134.569 115.925 134.595 116.138C134.675 116.8 135.135 117.147 135.7 117.463C136.418 117.865 137.19 117.878 137.972 117.649C138.716 117.432 139.199 116.609 138.902 115.903C138.84 115.757 139.054 115.727 138.915 115.557C138.78 115.392 138.691 115.488 138.473 115.531" stroke="#00ADB5" stroke-opacity="0.5" stroke-width="0.546618" stroke-linecap="round" stroke-linejoin="round"/>
<path d="M135.917 116.043C136.287 115.107 136.748 114.172 136.963 113.184C137.019 112.925 137.088 112.708 137.229 112.474C137.525 111.98 137.786 111.453 137.962 110.904C138.129 110.383 138.14 109.869 138.36 109.36C138.438 109.178 138.907 108.633 138.706 108.885" stroke="#00ADB5" stroke-opacity="0.5" stroke-width="0.546618" stroke-linecap="round" stroke-linejoin="round"/>
<path d="M139.589 109.349C139.417 110.426 139.157 111.456 138.974 112.52C138.873 113.11 138.706 113.603 138.706 114.225C138.706 114.669 138.864 115.04 138.763 115.485C138.645 115.998 138.54 115.745 138.334 115.392" stroke="#00ADB5" stroke-opacity="0.5" stroke-width="0.546618" stroke-linecap="round" stroke-linejoin="round"/>
<path d="M139.124 109.349C138.801 110.022 138.101 111.127 138.101 111.976C138.101 112.458 138.133 112.971 138.099 113.46C138.059 114.043 137.604 114.798 137.332 115.299C137.241 115.465 137.124 115.594 137.068 115.774C136.999 115.999 137.049 116.013 136.893 115.764" stroke="#00ADB5" stroke-opacity="0.5" stroke-width="0.546618" stroke-linecap="round" stroke-linejoin="round"/>
<path d="M135.777 115.067C136.569 115.633 137.966 116.788 138.938 115.79C139.09 115.634 139.308 115.302 139.393 115.103C139.507 114.831 139.136 115.062 138.892 115.113" stroke="#00ADB5" stroke-opacity="0.5" stroke-width="0.546618" stroke-linecap="round" stroke-linejoin="round"/>
<path d="M136.707 114.23C137.159 114.216 138.071 114.337 138.51 114.111C138.524 114.104 138.476 114.116 138.463 114.127C138.42 114.161 138.33 114.105 138.288 114.091" stroke="#00ADB5" stroke-opacity="0.5" stroke-width="0.546618" stroke-linecap="round" stroke-linejoin="round"/>
<path d="M137.218 112.51C137.55 112.598 138.748 113.108 138.799 112.557" stroke="#00ADB5" stroke-opacity="0.5" stroke-width="0.546618" stroke-linecap="round" stroke-linejoin="round"/>
<path d="M137.776 111.116C138.187 111.384 139.854 112.625 139.589 111.302" stroke="#00ADB5" stroke-opacity="0.5" stroke-width="0.546618" stroke-linecap="round" stroke-linejoin="round"/>
<path d="M138.241 110.465C138.659 110.573 139.077 110.682 139.496 110.79" stroke="#00ADB5" stroke-opacity="0.5" stroke-width="0.546618" stroke-linecap="round" stroke-linejoin="round"/>
<path d="M140.286 110.465C140.803 110.952 141.836 112.086 141.866 112.939C141.891 113.634 141.866 114.307 141.866 115.01C141.866 115.521 141.964 116.068 141.913 116.554C141.846 117.193 140.865 117.201 141.1 117.951C141.178 118.202 141.11 118.35 141.329 118.53C141.519 118.685 141.657 118.865 141.727 119.111C141.891 119.685 141.564 120.203 141.169 120.598C140.922 120.845 140.601 121.342 140.309 121.504C140.165 121.584 139.87 121.528 139.705 121.528C139.552 121.528 139.242 121.627 139.103 121.69C138.899 121.783 138.64 121.619 138.38 121.713" stroke="#00ADB5" stroke-opacity="0.5" stroke-width="0.546618" stroke-linecap="round" stroke-linejoin="round"/>
<path d="M133.035 113.161C133.223 113.783 133.362 114.301 133.676 114.834C133.804 115.053 133.787 115.252 133.73 115.508C133.664 115.806 133.446 116.504 133.616 116.81C133.877 117.28 133.872 117.777 133.872 118.297C133.872 118.798 134.656 119.016 134.912 119.273C135.294 119.655 135.129 120.142 135.757 120.309C135.894 120.345 136.109 120.347 136.217 120.435C136.298 120.502 136.393 120.669 136.501 120.688C136.722 120.729 137.018 120.685 137.218 120.774C137.386 120.848 137.508 120.955 137.66 121.04C137.828 121.133 138.058 121.028 138.241 121.12C138.866 121.432 138.587 121.135 138.148 120.784" stroke="#00ADB5" stroke-opacity="0.5" stroke-width="0.546618" stroke-linecap="round" stroke-linejoin="round"/>
<path d="M86.7789 89.8156C85.5368 91.4047 80.2038 97.7644 84.7478 99.2033C86.158 99.6499 87.9936 98.6232 89.5137 98.7715C91.6628 98.9812 92.8712 100.808 93.3999 102.706C94.0088 104.891 90.6493 108.776 92.2644 109.95C95.0305 111.962 99.0144 108.56 101.3 111.262C102.596 112.793 101.233 115.018 102.036 111.406" stroke="#00ADB5" stroke-opacity="0.5" stroke-width="0.546618" stroke-linecap="round" stroke-linejoin="round"/>
<path d="M149.156 65.0587C150.353 66.6449 153.202 70.2181 154.274 72.2555C155.186 73.9897 154.036 73.9201 153.058 73.231C151.889 72.407 152.053 70.6545 152.387 69.4407C153.513 65.3431 160.807 61.5759 161.63 67.8734C161.92 70.0855 159.942 73.805 157.248 72.9272C153.692 71.7683 153.919 66.3405 156.609 64.323C159.36 62.2595 163.869 64.6307 163.869 68.0014C163.869 71.7436 159.421 72.9023 157.696 69.6007C156.128 66.5999 158.907 63.4609 161.886 63.0116C162.982 62.8464 165.813 64.1123 163.837 64.7708" stroke="#00ADB5" stroke-opacity="0.5" stroke-width="0.546618" stroke-linecap="round" stroke-linejoin="round"/>
<path d="M209.321 93.5579C207.457 95.4101 201.565 99.7287 206.522 101.41C209.406 102.389 212.076 100.785 213.863 98.5956C215.834 96.18 216.169 92.36 213.031 90.7911C210.59 89.5709 208.487 87.6109 206.442 90.6792" stroke="#00ADB5" stroke-opacity="0.5" stroke-width="0.546618" stroke-linecap="round" stroke-linejoin="round"/>
<path d="M272.94 118.89C269.381 121.011 263.976 123.572 269.486 125.575C270.333 125.883 270.884 125.683 271.629 125.16C274.383 123.224 274.545 122.449 274.38 119.466C274.27 117.491 271.382 117.942 270.062 118.603C268.115 119.576 266.756 121.525 265.968 123.496C264.906 126.149 270.393 125.987 271.149 122.793C271.624 120.79 269.333 117.945 267.759 120.394C265.673 123.638 268.856 126.539 270.861 123.145C272.782 119.893 268.294 118.552 267.087 122.345C265.501 127.331 274.932 121.917 271.501 120.202C269.456 119.179 266.004 125.672 269.774 124.056C274.352 122.094 269.23 119.203 269.23 123.784C269.23 127.502 275.379 122.106 271.373 120.65C270.457 120.317 269.553 123.244 270.206 123.896C271.341 125.031 273.313 122.092 273.212 121.033C272.78 116.491 268.333 128.04 273.628 122.745C274.838 121.535 274.788 119.349 272.78 120.634C271.596 121.392 270.846 124.61 273.084 123.864C275.234 123.148 275.233 119.166 272.924 120.09C271.515 120.654 271.005 122.649 269.486 122.345" stroke="#00ADB5" stroke-opacity="0.5" stroke-width="0.546618" stroke-linecap="round" stroke-linejoin="round"/>
<path d="M241.85 148.541C241.256 149.197 231.771 160.901 236.541 154.938C237.632 153.575 238.634 152.233 240.123 151.276C241.041 150.686 241.925 150.321 242.714 149.533C243.576 148.671 242.354 148.727 242.154 150.524C241.98 152.089 242.114 158.92 241.85 158.904C240.072 158.8 238.906 157.05 237.26 156.474C236.379 156.165 233.764 156.609 234.494 156.026C236.277 154.599 241.738 150.509 240.123 152.124C238.9 153.347 236.386 157.944 237.244 156.442C237.855 155.374 239.505 151.893 239.259 152.475C238.753 153.674 237.873 155.727 237.948 157.049C238.02 158.304 240.512 155.217 240.667 154.906C241.822 152.596 239.432 157.791 240.283 156.554C241.05 155.439 243.641 152.604 241.786 155.386C241.381 155.995 243.707 153.186 243.29 153.787C243.168 153.961 242.114 155.73 242.73 155.114C244.937 152.907 241.685 155.202 241.275 154.586" stroke="#00ADB5" stroke-opacity="0.5" stroke-width="0.546618" stroke-linecap="round" stroke-linejoin="round"/>
<path d="M222.563 196.328C223.571 194.893 229.329 188.562 224.594 188.283C223.794 188.236 222.144 187.976 221.476 188.523C219.886 189.823 220.575 193.33 222.723 193.721C225.571 194.239 228.24 190.344 225.154 188.843C221.93 187.275 214.32 193.574 217.605 196.168C224.073 201.274 229.922 186.435 221.555 188.571C213.967 190.509 220.652 198.326 224.098 193.289C227.788 187.896 216.411 187.85 218.421 193.881C219.412 196.855 222.666 195.42 223.251 193.017C224.107 189.495 220.605 190.949 220.548 193.385C220.487 195.995 224.509 191.272 222.099 191.482C220.358 191.633 220.186 194.025 218.821 194.025" stroke="#00ADB5" stroke-opacity="0.5" stroke-width="0.546618" stroke-linecap="round" stroke-linejoin="round"/>
<path d="M107.991 169.268C108.572 171.905 109.718 179.885 109.718 177.184C109.718 175.32 108.293 173.58 108.007 171.715C107.906 171.063 108.113 169.136 107.559 168.692C107.179 168.389 110.764 171.179 111.717 171.715C113.455 172.693 114.701 174.519 116.211 172.578C116.936 171.647 119.068 171.518 119.361 171.283C121.493 169.578 121.297 167.033 121.792 164.806C121.969 164.012 121.52 167.518 121.52 168.548C121.52 169.867 121.758 171.612 122.112 172.85C122.615 174.609 122.413 169.646 121.936 168.692C121.161 167.142 121.233 165.766 121.233 164.086C121.233 163.423 126.045 171.736 125.199 172.37C124.845 172.636 120.133 171.336 118.706 171.795C117.476 172.19 116.353 172.651 115.187 173.234C114.868 173.393 114.343 173.974 114.548 173.81C115.278 173.225 117.515 171.627 116.627 171.923C115.407 172.329 114.209 173.509 113.108 174.162C111.033 175.391 110.362 175.219 109.494 177.328C109.369 177.632 110.917 177.593 111.221 177.68C113.4 178.302 114.769 176.606 116.691 175.825C119.171 174.817 122.023 172.748 124.687 172.434C126.698 172.198 123.64 171.493 123.536 171.283" stroke="#00ADB5" stroke-opacity="0.5" stroke-width="0.546618" stroke-linecap="round" stroke-linejoin="round"/>
<path d="M217.957 58.4377C223.382 56.6986 232.169 54.6984 237.02 50.7292C237.901 50.0089 239.264 49.3185 238.955 47.9304C237.797 42.7157 235.275 41.4927 230.303 42.0451C227.546 42.3515 224.899 44.8952 222.339 45.9313C219.703 46.998 217.067 48.3996 214.662 49.9295C212.229 51.478 213.639 52.245 213.639 54.9193C213.639 56.3898 214.517 58.4377 216.086 58.4377C216.801 58.4377 218.85 57.862 216.821 57.862C215.229 57.862 212.758 58.1032 211.336 57.3502C210.25 56.7752 212.394 55.6429 212.903 55.575C214.723 55.3324 210.818 57.1122 210.424 57.2382C209.614 57.4975 213.348 54.6678 211.272 55.3351C209.021 56.0585 212.361 54.1187 213.063 53.7678C213.855 53.3718 213.164 53.9988 213.351 53.6718C213.65 53.1488 215.38 51.227 213.815 52.7922C213.291 53.3163 214.997 51.8985 215.574 51.4328C216.66 50.5559 215.282 51.8864 215.014 52.1045C213.779 53.1096 213.49 52.2986 212.487 52.7443C212.068 52.9305 211.048 53.5484 211.048 52.8242C211.048 51.5748 215.456 51.0057 216.262 50.9691C221.192 50.7449 224.643 48.5698 229.184 47.4346C231.369 46.8884 233.757 46.1016 235.805 45.1317C237.323 44.4123 240.366 42.1602 241.978 42.6208C242.612 42.8018 232.837 48.4895 235.645 46.635C237.968 45.1009 240.632 44.0237 237.148 46.9069C234.357 49.2167 239.267 46.5262 239.659 46.683C240.363 46.9646 235.325 49.8422 239.163 48.0744C240.631 47.3982 241.85 47.3648 241.85 45.7714C241.85 43.6084 242.442 41.0448 239.691 42.0451C236.517 43.1993 233.969 45.6665 230.687 46.635C228.425 47.3027 226.22 48.1458 224.002 48.938C221.428 49.8572 216.769 50.8851 214.934 53.1281C213.956 54.3235 212.214 58.9821 215.814 56.9664C219.116 55.1172 219.641 51.376 221.411 48.4262C222.29 46.9611 219.879 51.5207 219.524 53.1921C219.116 55.1143 220.925 57.3264 222.995 56.9664C225.265 56.5715 227.654 53.4358 228.464 51.5288C232.36 42.3628 225.294 51.2529 227.297 53.256C229.422 55.3818 232.662 49.7505 233.086 48.3622C233.597 46.6895 233.897 44.6277 234.509 43.0366C235.303 40.9731 230.235 43.2972 229.76 43.5324C227.124 44.835 225.284 46.5727 223.49 48.874C222.841 49.707 220.236 53.628 222.019 54.5195C224.409 55.7142 227.342 52.0006 227.409 50.0735C227.634 43.5452 222.259 46.891 219.012 49.4497C217.006 51.0309 218.749 54.191 219.108 53.8318" stroke="#00ADB5" stroke-opacity="0.5" stroke-width="0.546618" stroke-linecap="round" stroke-linejoin="round"/>
<path d="M145.126 214.463C145.001 214.563 140.264 218.649 140.264 217.486C140.264 216.805 140.788 216.076 141.256 215.631C142.179 214.751 145.829 214.074 144.95 216.223C144.36 217.664 141.951 219.788 141.271 217.07C140.989 215.942 142.926 213.677 144.102 214.639C145.399 215.7 142.611 217.052 141.735 216.575C140.171 215.721 142.05 212.683 143.558 213.312C145.136 213.969 142.966 215.767 142.247 216.127C140.566 216.967 140.801 215.608 139.944 214.751" stroke="#00ADB5" stroke-opacity="0.5" stroke-width="0.546618" stroke-linecap="round" stroke-linejoin="round"/>
<path d="M67.1126 214.176C68.772 216.91 71.9325 219.747 68.7119 222.236C67.8812 222.878 62.9808 225.444 63.2743 222.46C63.6318 218.825 69.0483 218.745 69.3836 215.487C69.7152 212.266 62.0214 213.479 60.2677 211.297C59.1691 209.93 58.2831 206.9 58.5405 205.156C58.6407 204.476 60.3635 203.158 60.1877 204.388C59.866 206.64 52.6042 212.409 56.9092 214.304C59.7956 215.574 60.5402 212.358 62.6666 211.585C67.0467 209.992 60.4916 221.805 60.4916 218.782" stroke="#00ADB5" stroke-opacity="0.5" stroke-width="0.546618" stroke-linecap="round" stroke-linejoin="round"/>
<path d="M208.169 251.599C206.836 254.754 204.139 264.476 204.139 261.05C204.139 260.517 204.242 260.095 204.427 259.595C205.294 257.25 206.297 255.067 207.753 253.006C208.548 251.881 209.495 248.587 210.632 251.087C211.162 252.253 212.679 255.501 212.039 256.78C211.237 258.386 208.744 259.307 207.082 259.371C206.649 259.388 202.108 259.984 203.579 258.636C205.308 257.05 206.982 252.229 209.592 251.903C209.995 251.852 210.838 252.122 211.192 252.318C211.816 252.665 211.056 253.291 210.76 253.774C210.405 254.353 207.599 258.268 207.593 258.092C207.514 255.469 210.205 251.66 211.656 249.68C212.176 248.969 209.408 253.79 208.777 254.877C208.288 255.719 208.926 257.507 206.73 257.068" stroke="#00ADB5" stroke-opacity="0.5" stroke-width="0.546618" stroke-linecap="round" stroke-linejoin="round"/>
<path d="M118.93 20.1509C117.645 25.1755 116.501 29.9629 116.035 35.0882C115.988 35.6009 115.664 35.9323 115.987 36.3356C116.467 36.9359 117.737 33.1194 118.226 32.0975C119.775 28.8586 121.52 27.5804 121.52 23.6054C121.52 23.0318 121.52 19.7305 121.52 21.9101C121.52 23.7606 121.871 25.5895 121.744 27.4436C121.649 28.845 120.303 32.627 121.297 31.6337C122.83 30.1007 121.601 22.414 119.201 22.214C115.926 21.941 114.346 29.0412 113.972 31.2499C113.536 33.8196 115.348 34.8955 117.346 32.8972C120.074 30.1696 120.665 24.5621 118.322 21.3664C115.102 16.976 112.989 24.8978 112.724 26.8359C112.125 31.2201 114.573 32.625 117.474 29.5067C118.541 28.3598 120.692 26.3766 120.241 24.5969C119.641 22.2296 116.142 24.5284 115.443 25.5565C114.453 27.0143 114.465 30.6455 116.067 31.6817C117.562 32.6492 119.017 28.6404 118.85 27.6355C118.139 23.3739 110.106 30.1391 114.1 32.5613C117.575 34.6695 119.879 25.2378 115.603 26.4041C114.412 26.7289 111.584 29.9385 114.036 29.9385" stroke="#00ADB5" stroke-opacity="0.5" stroke-width="0.546618" stroke-linecap="round" stroke-linejoin="round"/>
<path d="M42.6438 102.194C41.3502 105.859 40.4189 108.198 37.1423 110.254C36.3196 110.771 35.2323 111.684 35.0632 112.717C34.7018 114.926 38.1852 117.359 40.1649 116.699C44.3362 115.309 38.0241 111.181 37.3502 109.982C36.1768 107.896 40.4177 104.149 42.3719 105.249C43.8931 106.104 44.5674 109.086 43.6673 110.542C42.3561 112.663 39.5377 112.747 37.3342 112.413C35.5793 112.147 32.0641 112.509 33.0961 115.116C34.3875 118.379 40.4822 116.669 41.3964 113.901C42.2864 111.206 37.4679 110.19 38.5017 107.664C39.2117 105.928 41.4538 103.761 43.4434 103.761C45.8267 103.761 43.4466 108.213 43.0916 108.911C41.5237 111.993 39.1248 112.3 36.0867 113.133C30.3688 114.701 36.5287 114.922 36.8864 113.133" stroke="#00ADB5" stroke-opacity="0.5" stroke-width="0.546618" stroke-linecap="round" stroke-linejoin="round"/>
<path d="M35.7348 141.632C35.1237 143.933 33.317 147.86 33.4958 150.364C33.5796 151.538 33.9001 148.046 34.0396 146.878C34.3053 144.653 34.6093 142.139 35.7988 140.193C36.0099 139.847 40.8923 145.942 41.3323 146.942C42.5099 149.618 41.0356 149.109 39.1893 149.98C38.1631 150.465 31.1609 152.937 31.1609 152.283C31.1609 151.599 32.481 150.208 32.7922 149.629C33.7661 147.817 34.8111 145.542 35.2231 143.519C36.1028 139.201 35.447 148.088 35.447 148.765C35.447 149.176 35.6066 151.58 34.6473 151.58C33.4467 151.58 35.459 149.32 35.8628 148.189C36.291 146.99 37.9955 143.456 37.574 142.192C36.977 140.401 36.6784 145.887 36.6144 147.773C36.5711 149.052 35.9523 151.187 36.9503 149.117C37.2683 148.457 38.2949 145.753 38.2777 145.95C38.133 147.615 37.4621 149.33 37.4621 151.004C37.4621 152.717 38.3656 147.203 39.9249 146.494C40.3127 146.318 39.765 149.568 39.765 150.044C39.765 150.911 40.5966 146.715 40.5966 147.582C40.5966 147.823 40.2516 149.283 39.9889 148.829C38.9123 146.969 38.1024 145.82 35.8948 145.151C34.8893 144.846 31.6935 145.055 32.7442 145.055C33.4348 145.055 34.5195 142.651 35.287 143.279C36.3054 144.113 34.9078 146.772 34.5833 147.678C34.0521 149.159 33.7195 147.075 35.0311 147.23C36.3978 147.39 35.0035 152.437 35.7668 151.292C36.1211 150.76 37.1942 148.139 37.1582 148.445C36.4614 154.368 36.6064 146.826 37.7499 148.541" stroke="#00ADB5" stroke-opacity="0.5" stroke-width="0.546618" stroke-linecap="round" stroke-linejoin="round"/>
<path d="M178.231 63.3315C181.894 63.1506 185.431 64.5046 184.852 60.1649C184.565 58.0145 183.36 54.4989 183.988 52.3924C184.655 50.156 188.75 45.1123 185.252 43.5324C182.318 42.2075 178.484 45.954 177.943 48.4902C177.718 49.545 177.766 52.8402 179.51 52.8402C180.828 52.8402 181.671 51.546 182.821 52.6963C184.325 54.2 184.593 55.5717 183.524 57.4621C180.96 61.9998 170.813 56.9315 176.28 51.4648C177.029 50.7155 179.993 47.2791 181.397 48.2663C183.33 49.6243 183.069 53.1602 182.069 54.9193C181.072 56.6734 177.414 58.5103 175.976 56.2627C175.265 55.152 175.605 54.4075 176.792 54.4075" stroke="#00ADB5" stroke-opacity="0.5" stroke-width="0.546618" stroke-linecap="round" stroke-linejoin="round"/>
<path d="M208.899 90.2715C209.237 90.135 219.768 84.936 219.278 87.7926C219.015 89.3257 219.191 90.7555 219.406 92.2866C219.488 92.8723 220.916 97.4363 219.486 97.4363C216.822 97.4363 214.221 96.0982 211.554 96.6046C210.448 96.8146 208.245 97.5724 208.163 95.805C208.101 94.4798 207 88.5222 209.618 89.104C211.776 89.5835 211.87 87.871 210.338 91.6789C210.121 92.2195 208.691 96.281 208.931 96.0929C211.325 94.2114 212.639 90.5935 214.832 88.4003C216.202 87.0308 213.854 92.5275 213.569 93.2142C212.111 96.7224 215.836 90.241 216.255 89.5998C218.096 86.7844 216.699 91.8248 216.415 92.6544C215.564 95.1486 218.182 90.4913 219.23 89.8717C222.704 87.8188 219.422 94.9093 218.686 93.4381" stroke="#00ADB5" stroke-opacity="0.5" stroke-width="0.546618" stroke-linecap="round" stroke-linejoin="round"/>
<path d="M180.534 144.511C180.699 148.742 180.625 151.051 184.212 148.381C185.23 147.624 184.797 149.416 184.548 149.853C184.131 150.582 181.687 154.25 184.148 152.843C184.771 152.487 186.451 151.776 186.451 153.147C186.451 153.363 185.698 156.011 186.435 155.274C187.643 154.066 187.665 149.511 187.73 147.742C187.745 147.355 187.914 146.906 187.57 147.102C185.806 148.11 184.968 153.389 184.052 155.45C183.261 157.229 180.981 155.133 179.67 154.299C177.184 152.717 178.748 153.84 178.806 153.723" stroke="#00ADB5" stroke-opacity="0.5" stroke-width="0.546618" stroke-linecap="round" stroke-linejoin="round"/>
<path d="M160.671 182.222C160.66 182.356 160.322 190.62 160.383 186.604C160.401 185.378 160.366 184.152 160.383 182.926C160.431 179.444 161.052 181.06 162.558 182.494C163.248 183.151 165.782 184.571 165.373 185.9C165.252 186.292 161.185 187 160.543 187.244C160.061 187.427 157.216 189.218 157.216 189.131C157.216 186.992 157.97 184.677 158.224 182.542C158.762 178.021 161.89 190.124 162.094 187.068C162.142 186.348 162.11 182.066 162.11 183.134C162.11 183.929 162.686 188.168 162.686 185.389C162.686 184.76 162.686 184.131 162.686 183.501C162.686 183.205 162.848 184.625 162.958 184.349C163.357 183.352 162.686 181.347 162.686 183.789C162.686 186.531 161.917 184.557 160.239 184.557C158.803 184.557 157.981 189.818 158.72 188.587C159.367 187.509 158.092 183.118 158.656 185.373C158.951 186.553 159.66 185.248 160.095 184.813" stroke="#00ADB5" stroke-opacity="0.5" stroke-width="0.546618" stroke-linecap="round" stroke-linejoin="round"/>
<path fill-rule="evenodd" clip-rule="evenodd" d="M159.307 151.884C157.971 151.397 156.7 150.685 155.54 149.696C146.781 142.234 150.537 130.976 155.837 125.115C161.138 119.254 193.565 121.592 178.268 148.744C178.203 148.783 178.138 148.822 178.071 148.862C176.36 154.303 177.803 158.971 179.533 164.572C180.239 166.856 180.993 169.295 181.6 172.006L165.377 170.843C160.918 164.788 159.227 158.684 159.307 151.884Z" fill="#F5B9AB"/>
<path d="M155.54 149.696L155.788 149.405L155.788 149.405L155.54 149.696ZM159.307 151.884L159.438 151.525C159.59 151.58 159.691 151.726 159.689 151.888L159.307 151.884ZM155.837 125.115L156.121 125.372L156.121 125.372L155.837 125.115ZM178.268 148.744L178.601 148.932C178.568 148.99 178.522 149.038 178.465 149.072L178.268 148.744ZM178.071 148.862L177.706 148.747C177.734 148.657 177.795 148.58 177.877 148.532L178.071 148.862ZM179.533 164.572L179.168 164.684L179.168 164.684L179.533 164.572ZM181.6 172.006L181.973 171.922C182 172.04 181.969 172.163 181.89 172.255C181.811 172.347 181.693 172.396 181.573 172.387L181.6 172.006ZM165.377 170.843L165.349 171.224C165.238 171.216 165.135 171.16 165.069 171.07L165.377 170.843ZM155.788 149.405C156.911 150.363 158.142 151.052 159.438 151.525L159.176 152.243C157.8 151.741 156.489 151.007 155.292 149.987L155.788 149.405ZM156.121 125.372C153.515 128.253 151.292 132.461 150.796 136.848C150.302 141.219 151.517 145.767 155.788 149.405L155.292 149.987C150.803 146.164 149.517 141.352 150.036 136.762C150.553 132.19 152.859 127.838 155.554 124.859L156.121 125.372ZM177.935 148.557C181.733 141.814 182.53 136.68 181.591 132.864C180.653 129.059 177.968 126.483 174.613 124.895C171.252 123.304 167.245 122.72 163.749 122.898C162.002 122.987 160.395 123.266 159.069 123.697C157.736 124.131 156.72 124.709 156.121 125.372L155.554 124.859C156.28 124.056 157.437 123.424 158.832 122.97C160.234 122.514 161.91 122.226 163.71 122.134C167.306 121.951 171.444 122.549 174.94 124.204C178.442 125.862 181.327 128.595 182.333 132.682C183.337 136.758 182.451 142.098 178.601 148.932L177.935 148.557ZM177.877 148.532C177.943 148.493 178.007 148.455 178.071 148.417L178.465 149.072C178.399 149.111 178.332 149.151 178.264 149.191L177.877 148.532ZM179.168 164.684C177.442 159.1 175.955 154.319 177.706 148.747L178.435 148.976C176.766 154.288 178.163 158.842 179.899 164.459L179.168 164.684ZM181.227 172.089C180.624 169.396 179.874 166.97 179.168 164.684L179.899 164.459C180.604 166.742 181.362 169.195 181.973 171.922L181.227 172.089ZM165.404 170.462L181.628 171.624L181.573 172.387L165.349 171.224L165.404 170.462ZM159.689 151.888C159.61 158.612 161.278 164.633 165.685 170.616L165.069 171.07C160.557 164.943 158.844 158.757 158.924 151.879L159.689 151.888Z" fill="black"/>
<path d="M181.178 132.347C183.717 135.879 180.983 144.603 178.965 146.785C195.682 137.509 185.099 116.58 179.941 120.397C179.1 112.659 170.222 109.929 164.169 116.473C148.995 104.219 148.197 125.1 153.553 128.275C158.909 131.451 165.407 128.427 168.779 130.064C172.151 131.702 174.232 141.621 175.325 136.116C176.417 130.61 178.005 127.932 181.178 132.347Z" fill="#00ADB5" stroke="black" stroke-width="0.764647"/>
<path d="M196.182 286.422L172.65 284.714L178.314 221.374C178.314 221.374 151.012 156.677 174.448 156.677C207.563 156.677 218.636 207.696 218.224 221.374C217.811 235.052 196.182 286.422 196.182 286.422Z" fill="#EEEEEE" stroke="black" stroke-width="0.764647"/>
<path d="M172.473 287.454L172.802 284.594L196.498 285.546L195.976 290.142C195.131 297.573 187.689 302.365 180.574 300.057C175.218 298.32 171.829 293.048 172.473 287.454Z" fill="#F5B9AB" stroke="black" stroke-width="0.764647" stroke-linejoin="round"/>
<path d="M138.317 240.841C123.01 226 142.032 176.84 145.134 170.989C149.651 162.652 163.209 148.149 181.303 156.831C208.665 169.961 196.162 234.926 191.243 257.445L138.317 240.841Z" fill="#EEEEEE" stroke="black" stroke-width="0.764647"/>
<path d="M19.1227 292.362L16.656 270.065C16.656 270.065 73.925 251.505 121.124 244.541L185.93 250.139C195.664 273.143 190.864 315.419 118.663 295.983L19.1227 292.362Z" fill="#00ADB5" stroke="black" stroke-width="0.764647"/>
<path fill-rule="evenodd" clip-rule="evenodd" d="M88.5187 253.297L78.3433 284.943L56.9943 283.9L47.2533 224.863C45.6395 215.082 53.185 206.19 63.0978 206.19L76.306 206.19L77.2186 204.764L81.6525 206.19C85.1962 206.194 88.4048 207.322 91.0054 209.198L180.72 238.057C194.595 242.521 200.835 258.629 193.588 271.275L179.864 295.224C172.74 307.656 156.083 310.577 145.154 301.311L88.5187 253.297Z" fill="#00ADB5"/>
<path d="M88.5187 253.297L88.7659 253.005L88.3297 252.635L88.1547 253.18L88.5187 253.297ZM78.3433 284.943L78.3247 285.325L78.6175 285.34L78.7073 285.06L78.3433 284.943ZM56.9943 283.9L56.6171 283.963L56.6674 284.267L56.9757 284.282L56.9943 283.9ZM47.2533 224.863L46.8761 224.925L46.8761 224.925L47.2533 224.863ZM63.0978 206.19L63.0978 206.572H63.0978L63.0978 206.19ZM76.306 206.19L76.306 206.572L76.5153 206.572L76.628 206.396L76.306 206.19ZM77.2186 204.764L77.3357 204.4L77.0553 204.309L76.8965 204.558L77.2186 204.764ZM81.6525 206.19L81.5355 206.554L81.5924 206.572L81.6521 206.572L81.6525 206.19ZM91.0054 209.198L90.7817 209.508L90.8308 209.544L90.8884 209.562L91.0054 209.198ZM180.72 238.057L180.603 238.421L180.603 238.421L180.72 238.057ZM193.588 271.275L193.257 271.084L193.257 271.084L193.588 271.275ZM179.864 295.224L180.196 295.414L180.196 295.414L179.864 295.224ZM145.154 301.311L144.907 301.603L144.907 301.603L145.154 301.311ZM88.1547 253.18L77.9794 284.826L78.7073 285.06L88.8826 253.414L88.1547 253.18ZM78.362 284.562L57.013 283.519L56.9757 284.282L78.3247 285.325L78.362 284.562ZM57.3716 283.838L47.6305 224.801L46.8761 224.925L56.6171 283.963L57.3716 283.838ZM47.6305 224.801C46.0552 215.253 53.421 206.572 63.0978 206.572L63.0978 205.808C52.949 205.808 45.2239 214.912 46.8761 224.925L47.6305 224.801ZM63.0978 206.572L76.306 206.572L76.306 205.808L63.0978 205.808L63.0978 206.572ZM76.628 206.396L77.5406 204.97L76.8965 204.558L75.9839 205.984L76.628 206.396ZM77.1015 205.128L81.5355 206.554L81.7696 205.826L77.3357 204.4L77.1015 205.128ZM81.6521 206.572C85.113 206.576 88.2439 207.677 90.7817 209.508L91.2292 208.888C88.5657 206.966 85.2795 205.812 81.653 205.808L81.6521 206.572ZM90.8884 209.562L180.603 238.421L180.837 237.694L91.1225 208.835L90.8884 209.562ZM180.603 238.421C194.246 242.81 200.383 258.65 193.257 271.084L193.92 271.465C201.288 258.608 194.943 242.231 180.837 237.694L180.603 238.421ZM193.257 271.084L179.532 295.034L180.196 295.414L193.92 271.465L193.257 271.084ZM179.532 295.034C172.527 307.258 156.148 310.13 145.401 301.019L144.907 301.603C156.018 311.023 172.952 308.053 180.196 295.414L179.532 295.034ZM145.401 301.019L88.7659 253.005L88.2714 253.588L144.907 301.603L145.401 301.019Z" fill="black"/>
<path d="M56.7486 283.66L78.5791 284.951L80.2719 303.277C80.2719 303.277 61.1203 302.722 49.5026 299.088L57.3114 295.25L56.7486 283.66Z" fill="#EEEEEE" stroke="black" stroke-width="0.764647" stroke-linejoin="round"/>
<rect width="53.4445" height="10.0208" rx="1.09803" transform="matrix(0.258819 0.965926 0.965926 -0.258819 49.3911 150.067)" fill="#EEEEEE" stroke="black" stroke-width="0.764647"/>
<rect width="53.4445" height="10.0208" rx="1.09803" transform="matrix(-1 0 0 1 114.545 196.464)" fill="#00ADB5" stroke="black" stroke-width="0.764647"/>
<path d="M16.826 270.081L19.5262 292.373L3.23076 296.871C3.23076 296.871 0.160601 277.664 1.64835 265.395L7.02999 272.465L16.826 270.081Z" fill="#EEEEEE" stroke="black" stroke-width="0.764647" stroke-linejoin="round"/>
<path d="M97.7484 212.424L109.977 192.048L147.472 212.464C145.753 188.901 161.926 154.991 178.908 157.057C208.702 160.68 186.752 234.117 167.235 247.062C147.718 260.006 97.7484 212.424 97.7484 212.424Z" fill="#EEEEEE"/>
<path d="M190.771 202.127C186.16 221.448 176.428 240.965 167.235 247.062C147.718 260.006 97.7482 212.424 97.7482 212.424L109.977 192.048L147.471 212.464L160.216 180.493" stroke="black" stroke-width="0.764647"/>
<path d="M107.751 190.502L110.092 192.176L97.7722 212.441L94.0057 209.756C87.9158 205.415 87.3328 196.582 92.7994 191.478C96.9154 187.635 103.17 187.227 107.751 190.502Z" fill="#F5B9AB" stroke="black" stroke-width="0.764647" stroke-linejoin="round"/>
</svg>
