<svg width="59" height="75" viewBox="0 0 59 75" fill="none" xmlns="http://www.w3.org/2000/svg">
<path d="M13.5041 50.0847C17.8967 45.4887 18.1282 43.905 18.884 38.3091C19.3002 35.2276 19.9286 32.2754 19.9503 29.1412C19.989 23.5364 21.4204 16.3538 26.7635 13.2463C37.277 7.13149 49.6322 23.0514 42.1538 32.3594C39.3076 35.9019 35.4383 38.0586 32.2091 41.2561C30.9141 42.5384 29.9782 44.0522 28.4418 45.1641C26.9684 46.2305 25.1375 47.5584 24.6905 49.2482C24.3129 50.6756 24.2489 52.639 22.9055 53.6338C21.0499 55.0081 21.7828 54.2428 19.7181 53.6966C18.2988 53.3211 16.5043 51.6394 15.6019 50.4209C14.9577 49.551 14.0192 51.3259 14.5009 49.5049C14.9144 47.9417 15.0736 49.3752 14.0449 49.1031" stroke="#00ADB5" stroke-opacity="0.5" stroke-width="1.24616" stroke-linecap="round" stroke-linejoin="round"/>
<path d="M18.7526 56.8151C16.1642 55.2339 8.88078 51.3053 10.0688 54.0962C11.5021 57.4634 12.8013 56.3096 15.3099 57.6069C16.5927 58.2703 16.8088 62.8286 15.2759 62.5181C13.0866 62.0747 12.4243 58.796 10.2287 58.2152C8.23036 57.6866 7.67778 60.3544 8.62954 61.6034C9.88636 63.2528 12.056 62.4112 12.6139 64.6099C13.4955 68.0844 9.02877 66.3755 7.91228 65.3186C6.78744 64.2539 5.83299 62.8035 5.03599 61.9024" stroke="#00ADB5" stroke-opacity="0.5" stroke-width="1.24616" stroke-linecap="round" stroke-linejoin="round"/>
<path d="M13.73 49.2307C13.7052 49.4689 13.3337 51.0236 13.9506 51.1868C14.2827 51.2747 14.4887 51.1137 14.7475 51.3625C15.052 51.6551 15.2632 52.2103 15.5323 52.5736C15.7694 52.8938 16.67 53.1003 16.762 53.4457C16.9125 54.01 17.4102 54.4287 17.9253 54.6281C18.5933 54.8866 18.7564 55.2993 19.5319 55.3303C19.769 55.3398 19.8296 55.2021 20.0393 55.2576C20.3631 55.3432 20.4619 55.5351 20.7782 55.3281C21.1283 55.099 21.6076 55.0752 21.8587 54.6533C22.2001 54.0798 22.9364 53.9252 21.8724 54.0556" stroke="#00ADB5" stroke-opacity="0.5" stroke-width="1.24616" stroke-linecap="round" stroke-linejoin="round"/>
<path d="M33.29 26.5704C32.113 26.2659 31.1215 26.0846 30.3912 27.225C29.8943 28.0009 29.6691 28.833 29.4361 29.7136C29.2097 30.5698 29.5531 31.3971 29.3399 32.203C29.0581 33.2682 28.2524 32.8685 27.4455 33.0022C26.6833 33.1285 26.1221 33.254 25.5715 33.842C25.0263 34.4242 24.9553 35.8101 24.8093 36.5612C24.6836 37.2075 24.6286 38.6373 24.0473 39.058C23.7314 39.2866 22.3078 39.3919 23.3305 38.9777" stroke="#00ADB5" stroke-opacity="0.5" stroke-width="1.24616" stroke-linecap="round" stroke-linejoin="round"/>
<path d="M40.0645 41.0848C40.8402 41.959 41.6608 42.7367 42.6086 43.4096C43.006 43.6917 43.5087 44.1405 43.5927 43.4239" stroke="#00ADB5" stroke-opacity="0.5" stroke-width="1.24616" stroke-linecap="round" stroke-linejoin="round"/>
<path d="M45.8784 32.9229C47.4401 33.7656 48.977 34.6564 50.5127 35.5389C50.7682 35.6857 50.3209 34.8235 50.3031 34.7962" stroke="#00ADB5" stroke-opacity="0.5" stroke-width="1.24616" stroke-linecap="round" stroke-linejoin="round"/>
<path d="M48.6147 24.4388C50.4084 24.6447 52.2129 24.7887 54.0122 24.9372C54.8406 25.0056 55.1481 25.198 54.8783 24.4088" stroke="#00ADB5" stroke-opacity="0.5" stroke-width="1.24616" stroke-linecap="round" stroke-linejoin="round"/>
<path d="M41.7019 12.84C43.13 12.9611 44.374 13.043 45.7705 12.7526C46.4242 12.6166 47.0718 12.4167 47.7375 12.3435C48.5285 12.2565 48.521 12.3447 47.8494 11.6546" stroke="#00ADB5" stroke-opacity="0.5" stroke-width="1.24616" stroke-linecap="round" stroke-linejoin="round"/>
<path d="M31.3757 3.78235C30.8077 5.12391 30.6526 5.97638 30.8824 7.38891C31.0063 8.15039 31.0358 9.07923 30.9916 9.85449C30.9764 10.1215 30.9672 10.2733 31.088 10.5087C31.1333 10.5968 31.122 9.68854 31.1158 9.5476" stroke="#00ADB5" stroke-opacity="0.5" stroke-width="1.24616" stroke-linecap="round" stroke-linejoin="round"/>
<path d="M19.8477 6.7074C19.8997 8.27471 20.1528 9.83192 20.141 11.385C20.135 12.1708 20.0052 12.1843 19.8832 11.3559" stroke="#00ADB5" stroke-opacity="0.5" stroke-width="1.24616" stroke-linecap="round" stroke-linejoin="round"/>
<path d="M12.8801 16.0402C14.0309 17.7268 14.8308 19.6541 15.5704 21.5472C15.6631 21.7844 15.8124 21.8995 15.9309 22.1033C16.2003 22.5664 15.7869 21.572 15.7404 21.4359" stroke="#00ADB5" stroke-opacity="0.5" stroke-width="1.24616" stroke-linecap="round" stroke-linejoin="round"/>
</svg>
