<svg width="92" height="21" viewBox="0 0 92 21" fill="none" xmlns="http://www.w3.org/2000/svg">
<path d="M0.504 20L4.176 0.559999H9.072L12.696 20H8.736L8.088 15.896H5.232L4.56 20H0.504ZM5.616 13.328H7.68L6.648 5.744L5.616 13.328ZM21.3308 20.24C20.8188 20.24 20.3068 20.128 19.7948 19.904C19.2988 19.664 18.8188 19.344 18.3548 18.944V20H14.4428V0.559999H18.3548V7.136C18.8348 6.72 19.3308 6.408 19.8428 6.2C20.3708 5.992 20.8828 5.888 21.3788 5.888C21.9068 5.888 22.3548 5.992 22.7228 6.2C23.1068 6.408 23.4188 6.704 23.6588 7.088C23.8988 7.456 24.0748 7.888 24.1868 8.384C24.2988 8.88 24.3548 9.408 24.3548 9.968V15.944C24.3548 16.808 24.2348 17.56 23.9948 18.2C23.7708 18.84 23.4348 19.344 22.9868 19.712C22.5388 20.064 21.9868 20.24 21.3308 20.24ZM19.4348 17.72C19.6908 17.72 19.8908 17.648 20.0348 17.504C20.1788 17.36 20.2828 17.176 20.3468 16.952C20.4108 16.712 20.4428 16.448 20.4428 16.16V9.68C20.4428 9.408 20.4108 9.168 20.3468 8.96C20.2828 8.736 20.1788 8.56 20.0348 8.432C19.9068 8.304 19.7228 8.24 19.4828 8.24C19.2748 8.24 19.0748 8.288 18.8828 8.384C18.7068 8.464 18.5308 8.568 18.3548 8.696V17.336C18.5308 17.448 18.7068 17.544 18.8828 17.624C19.0748 17.688 19.2588 17.72 19.4348 17.72ZM29.5834 20.24C28.5594 20.24 27.7674 19.88 27.2074 19.16C26.6474 18.44 26.3674 17.376 26.3674 15.968V10.232C26.3674 9.368 26.4874 8.616 26.7274 7.976C26.9674 7.32 27.3274 6.808 27.8074 6.44C28.2874 6.072 28.8794 5.888 29.5834 5.888C30.0954 5.888 30.5834 5.992 31.0474 6.2C31.5114 6.392 31.9354 6.656 32.3194 6.992V0.559999H36.2314V20H32.3194V18.92C31.8874 19.336 31.4394 19.664 30.9754 19.904C30.5114 20.128 30.0474 20.24 29.5834 20.24ZM31.2874 17.744C31.4154 17.744 31.5674 17.712 31.7434 17.648C31.9354 17.584 32.1274 17.496 32.3194 17.384V8.624C32.1594 8.544 31.9914 8.472 31.8154 8.408C31.6394 8.344 31.4714 8.312 31.3114 8.312C30.9594 8.312 30.7034 8.464 30.5434 8.768C30.3834 9.056 30.3034 9.408 30.3034 9.824V16.208C30.3034 16.496 30.3354 16.76 30.3994 17C30.4634 17.224 30.5674 17.408 30.7114 17.552C30.8554 17.68 31.0474 17.744 31.2874 17.744ZM41.1017 20.24C40.5417 20.24 40.0617 20.104 39.6617 19.832C39.2777 19.544 38.9897 19.152 38.7977 18.656C38.6057 18.16 38.5097 17.608 38.5097 17V6.128H42.4217V16.544C42.4217 16.88 42.4777 17.144 42.5897 17.336C42.7177 17.512 42.9337 17.6 43.2377 17.6C43.4137 17.6 43.5977 17.56 43.7897 17.48C43.9817 17.384 44.1817 17.28 44.3897 17.168V6.128H48.2777V20H44.3897V18.728C43.8937 19.192 43.3657 19.56 42.8057 19.832C42.2617 20.104 41.6937 20.24 41.1017 20.24ZM50.9154 20V0.559999H54.8034V20H50.9154ZM57.5494 20V0.559999H62.4694C64.1654 0.559999 65.4854 0.775999 66.4294 1.208C67.3734 1.624 68.0374 2.288 68.4214 3.2C68.8054 4.096 68.9974 5.264 68.9974 6.704V13.76C68.9974 15.216 68.8054 16.408 68.4214 17.336C68.0374 18.248 67.3734 18.92 66.4294 19.352C65.5014 19.784 64.1974 20 62.5174 20H57.5494ZM61.8454 17.024H62.5174C63.1734 17.024 63.6454 16.928 63.9334 16.736C64.2214 16.544 64.3974 16.256 64.4614 15.872C64.5414 15.488 64.5814 15.008 64.5814 14.432V5.96C64.5814 5.384 64.5334 4.92 64.4374 4.568C64.3574 4.216 64.1734 3.96 63.8854 3.8C63.5974 3.64 63.1334 3.56 62.4934 3.56H61.8454V17.024ZM75.9319 20.24C74.9239 20.24 74.0599 20.064 73.3399 19.712C72.6199 19.344 72.0679 18.816 71.6839 18.128C71.2999 17.424 71.1079 16.584 71.1079 15.608V10.52C71.1079 9.528 71.2999 8.688 71.6839 8C72.0679 7.312 72.6199 6.792 73.3399 6.44C74.0759 6.072 74.9399 5.888 75.9319 5.888C76.9559 5.888 77.8039 6.064 78.4759 6.416C79.1639 6.768 79.6759 7.288 80.0119 7.976C80.3639 8.664 80.5399 9.512 80.5399 10.52V13.304H74.9719V15.968C74.9719 16.32 75.0119 16.608 75.0919 16.832C75.1719 17.056 75.2839 17.216 75.4279 17.312C75.5719 17.408 75.7399 17.456 75.9319 17.456C76.1239 17.456 76.2919 17.416 76.4359 17.336C76.5959 17.24 76.7159 17.096 76.7959 16.904C76.8919 16.712 76.9399 16.448 76.9399 16.112V14.648H80.5399V15.992C80.5399 17.4 80.1319 18.464 79.3159 19.184C78.4999 19.888 77.3719 20.24 75.9319 20.24ZM74.9719 11.48H76.9399V10.088C76.9399 9.72 76.8919 9.432 76.7959 9.224C76.7159 9.016 76.5959 8.872 76.4359 8.792C76.2919 8.712 76.1159 8.672 75.9079 8.672C75.7159 8.672 75.5479 8.72 75.4039 8.816C75.2759 8.912 75.1719 9.08 75.0919 9.32C75.0119 9.544 74.9719 9.872 74.9719 10.304V11.48ZM84.4693 20L81.6853 6.128H85.4293L86.5813 14.984L87.6373 6.128H91.3813L88.5253 20H84.4693Z" fill="#EEEEEE"/>
</svg>
