<svg width="48" height="37" viewBox="0 0 48 37" fill="none" xmlns="http://www.w3.org/2000/svg">
<path d="M4.40424 32.6706C5.07443 31.8187 6.3579 30.2423 4.55898 29.9635C4.15205 29.9005 3.77195 29.6614 3.37265 29.8423C2.14274 30.3997 1 31.627 1 33.0861C1 35.4168 3.55608 35.9214 5.4129 35.8913C8.54566 35.8404 9.49877 32.7881 10.6052 30.3156C11.7229 27.8181 12.9644 25.3611 14.1241 22.8814C15.4363 20.0757 17.5883 17.8406 18.9496 15.0605C19.5333 13.8684 20.2956 12.8186 21.0472 11.7301C22.2131 10.0417 23.0444 8.33831 23.8783 6.46618C24.5625 4.9302 25.3211 3.52757 26.1593 2.07377C26.4982 1.48587 26.3708 0.585238 27.0189 1.21376C27.511 1.69097 28.2938 2.00445 28.956 2.12572C31.8512 2.65588 34.5137 3.21702 37.4953 2.97996C40.5108 2.7402 43.5246 2.30814 46.493 1.73323C47.5021 1.53778 47.072 1.77308 46.5962 2.38545C45.789 3.42413 45.0999 4.52488 44.3267 5.57731C43.3182 6.94977 42.9633 8.60266 42.3666 10.1717C41.7108 11.8965 40.9301 13.5441 40.3035 15.2972C39.0924 18.6853 37.3257 21.7751 35.1398 24.6188C33.873 26.2668 32.3081 29.145 29.936 29.0285C26.2651 28.8482 28.7439 21.6221 30.4977 20.209C31.4417 19.4484 32.4743 20.2673 32.5895 21.2884C32.7478 22.6914 32.2665 24.614 30.9046 25.2999C29.4676 26.0234 28.366 25.9366 29.4718 24.0704C30.1409 22.9413 30.5387 24.184 30.8129 23.6318" stroke="#00ADB5" stroke-opacity="0.5" stroke-width="1.24616" stroke-linecap="round" stroke-linejoin="round"/>
</svg>
