<svg width="18" height="18" viewBox="0 0 18 18" fill="none" xmlns="http://www.w3.org/2000/svg">
<g clip-path="url(#clip0_106_11388)">
<path d="M16.052 12.0537V14.1771C16.0528 14.3742 16.0124 14.5694 15.9334 14.75C15.8545 14.9306 15.7387 15.0927 15.5934 15.226C15.4481 15.3592 15.2767 15.4607 15.0899 15.5238C14.9032 15.587 14.7053 15.6104 14.509 15.5927C12.331 15.356 10.2389 14.6118 8.40076 13.4198C6.69061 12.3331 5.24071 10.8832 4.15401 9.17302C2.95782 7.32654 2.21341 5.22425 1.98109 3.03646C1.9634 2.84074 1.98666 2.64347 2.04939 2.45722C2.11212 2.27098 2.21294 2.09983 2.34543 1.95469C2.47793 1.80954 2.6392 1.69358 2.81896 1.61417C2.99873 1.53477 3.19307 1.49366 3.38959 1.49348H5.51297C5.85647 1.4901 6.18947 1.61173 6.44992 1.83572C6.71036 2.0597 6.88048 2.37075 6.92855 2.71088C7.01818 3.39041 7.18439 4.05761 7.42401 4.69978C7.51924 4.95311 7.53985 5.22844 7.4834 5.49313C7.42695 5.75782 7.2958 6.00078 7.1055 6.19322L6.20661 7.09211C7.21419 8.8641 8.68137 10.3313 10.4534 11.3389L11.3523 10.44C11.5447 10.2497 11.7877 10.1185 12.0523 10.0621C12.317 10.0056 12.5924 10.0262 12.8457 10.1215C13.4879 10.3611 14.1551 10.5273 14.8346 10.6169C15.1784 10.6654 15.4924 10.8386 15.7169 11.1035C15.9413 11.3684 16.0606 11.7066 16.052 12.0537Z" stroke="#EEEEEE" stroke-width="1.41558" stroke-linecap="round" stroke-linejoin="round"/>
</g>
<defs>
<clipPath id="clip0_106_11388">
<rect width="16.987" height="16.987" fill="white" transform="translate(0.480469 0.0778809)"/>
</clipPath>
</defs>
</svg>
