<svg width="35" height="35" viewBox="0 0 35 35" fill="none" xmlns="http://www.w3.org/2000/svg">
<g clip-path="url(#clip0_106_11402)">
<rect x="0.0390625" y="0.162109" width="33.974" height="33.974" rx="16.987" fill="#393E46"/>
<rect x="0.0390625" y="0.162109" width="33.974" height="33.974" rx="16.987" fill="#393E46"/>
<rect x="0.0390625" y="0.162109" width="33.974" height="33.974" rx="16.987" fill="#393E46"/>
<g clip-path="url(#clip1_106_11402)">
<path d="M24.8117 10.7791C24.1339 11.2572 23.3834 11.6229 22.5892 11.862C22.1629 11.3719 21.5964 11.0245 20.9663 10.8668C20.3361 10.7091 19.6727 10.7488 19.0659 10.9804C18.459 11.2121 17.9379 11.6245 17.5731 12.1619C17.2082 12.6994 17.0172 13.3359 17.0259 13.9854V14.6932C15.7821 14.7254 14.5496 14.4496 13.4382 13.8902C12.3267 13.3307 11.3709 12.5051 10.6558 11.4869C10.6558 11.4869 7.82465 17.857 14.1948 20.6882C12.7371 21.6777 11.0006 22.1738 9.24023 22.1038C15.6104 25.6427 23.3961 22.1038 23.3961 13.9642C23.3954 13.767 23.3765 13.5703 23.3395 13.3767C24.0618 12.6643 24.5716 11.7648 24.8117 10.7791V10.7791Z" stroke="#EEEEEE" stroke-opacity="0.75" stroke-width="1.41558" stroke-linecap="round" stroke-linejoin="round"/>
</g>
</g>
<defs>
<clipPath id="clip0_106_11402">
<rect x="0.0390625" y="0.162109" width="33.974" height="33.974" rx="16.987" fill="white"/>
</clipPath>
<clipPath id="clip1_106_11402">
<rect width="16.987" height="16.987" fill="white" transform="translate(8.53247 8.65576)"/>
</clipPath>
</defs>
</svg>
