<svg width="34" height="35" viewBox="0 0 34 35" fill="none" xmlns="http://www.w3.org/2000/svg">
<rect y="0.162109" width="33.974" height="33.974" rx="16.987" fill="#393E46"/>
<g clip-path="url(#clip0_106_11407)">
<path d="M24.4472 13.1997C24.3631 12.8638 24.1919 12.556 23.9508 12.3074C23.7097 12.0589 23.4073 11.8784 23.0741 11.7841C21.8567 11.4868 16.987 11.4868 16.987 11.4868C16.987 11.4868 12.1174 11.4868 10.9 11.8124C10.5668 11.9067 10.2644 12.0872 10.0233 12.3357C9.78223 12.5843 9.61099 12.8921 9.52692 13.228C9.30411 14.4635 9.19513 15.7168 9.20133 16.9722C9.19339 18.2371 9.30238 19.4999 9.52692 20.7447C9.61961 21.0702 9.79468 21.3663 10.0352 21.6043C10.2757 21.8424 10.5736 22.0144 10.9 22.1037C12.1174 22.4293 16.987 22.4293 16.987 22.4293C16.987 22.4293 21.8567 22.4293 23.0741 22.1037C23.4073 22.0094 23.7097 21.8289 23.9508 21.5804C24.1919 21.3318 24.3631 21.024 24.4472 20.6881C24.6683 19.4619 24.7772 18.2182 24.7728 16.9722C24.7807 15.7073 24.6717 14.4445 24.4472 13.1997V13.1997Z" stroke="#EEEEEE" stroke-opacity="0.75" stroke-width="1.41558" stroke-linecap="round" stroke-linejoin="round"/>
<path d="M15.3945 19.2867L19.4643 16.9722L15.3945 14.6577V19.2867Z" stroke="#EEEEEE" stroke-opacity="0.75" stroke-width="1.41558" stroke-linecap="round" stroke-linejoin="round"/>
</g>
<defs>
<clipPath id="clip0_106_11407">
<rect width="16.987" height="16.987" fill="white" transform="translate(8.49341 8.65576)"/>
</clipPath>
</defs>
</svg>
